<svg width="3689" height="3734" viewBox="0 0 3689 3734" fill="none" xmlns="http://www.w3.org/2000/svg">
<path d="M1889.84 3718.5C1667.31 3718.5 1497.32 3687.38 1429.52 3673.61C1318.03 3650.97 1159.35 3618.74 987.186 3552.6L2080.76 3532.73C2136.91 3531.7 2182.3 3489.09 2188.64 3435.14H2945.43C2579.29 3662.76 2187.59 3718.5 1889.84 3718.5ZM313.786 3059.53C-91.8951 2522.52 -74.0361 1750.03 198.574 1153.83C195.746 1377.28 219.462 1619.03 313.786 1847.91V3059.53ZM3547.87 2685.26L3141.52 700.404L2867.43 676.693L1456.11 700.404L1387.41 1174.16H951.587C967.815 876.273 879.255 631.992 832.08 525.092C828.413 516.791 820.879 512.826 813.375 512.826C804.48 512.826 795.627 518.377 793.279 528.845C776.747 602.65 735.253 745.449 631.934 973.868C611.313 846.983 569.621 738.866 520.262 648.989C717.828 416.922 1064.36 115.305 1584.35 47.3162C1662.95 37.0597 1743.76 31.8521 1825.61 31.8521C2242.81 31.8521 2688.62 166.615 3026.85 449.992C3685.07 1001.44 3796.78 1989.03 3547.87 2685.26V2685.26ZM3432.73 1961.68C3428.28 1961.68 3423.95 1963.87 3421.41 1967.89C3417.45 1974.12 3419.27 1982.42 3425.51 1986.39C3431.38 1990.13 3437.22 1994.02 3442.9 1997.97C3445.23 1999.58 3447.9 2000.35 3450.54 2000.35C3454.77 2000.35 3458.95 1998.35 3461.54 1994.61C3465.77 1988.54 3464.26 1980.18 3458.21 1975.95C3452.23 1971.81 3446.07 1967.71 3439.92 1963.79C3437.67 1962.37 3435.18 1961.68 3432.73 1961.68" fill="url(#paint0_linear_4_3)"/>
<path d="M238.78 360.945C235.289 346.081 256.196 336.205 268.995 346.597C398.995 451.991 711.347 767.679 633.496 1319.34C535.832 2011.46 702.803 2264.02 910.639 2418.07C910.639 2418.07 625.21 2345.63 445.633 2089.35C4.72595 1460.15 300.857 625.189 238.78 360.945" fill="#91B3FA"/>
<path d="M414.719 1188.89C412.96 1140.06 410.014 1091.26 406.403 1042.48C400.284 964.521 391.337 886.681 379.669 809.095C368.466 731.463 353.973 654.178 337.711 577.124C337.267 574.997 338.828 572.939 341.287 572.454C341.641 572.361 341.993 572.338 342.342 572.338C344.485 572.338 346.422 573.61 346.921 575.506C367.187 652.005 384.036 729.197 398.508 806.76C412.548 884.392 423.749 962.417 432.187 1040.72C434.254 1060.28 436.138 1079.88 437.895 1099.49C439.435 1119.09 441.016 1138.72 442.158 1158.37C442.526 1164.01 442.875 1169.7 443.205 1175.34C442.04 1176.82 440.954 1178.34 439.955 1179.92C431.244 1182.25 422.82 1185.26 414.719 1188.89Z" fill="#C0D6FC"/>
<path d="M575.533 2017.63C559.594 2034.54 531.563 2029.69 521.974 2008.51C469.067 1891.7 349.34 1547.94 547.072 1151.9C714.054 817.447 772.801 620.235 793.28 528.861C797.6 509.528 824.081 506.965 832.08 525.075C920.267 724.968 1153.11 1404.83 575.533 2017.63Z" fill="#BDD0FB"/>
<path d="M692.263 1174.15H673.249C697.178 1097.94 725.239 1021.52 758.199 947.314C759.706 943.936 763.026 941.914 766.506 941.914C767.732 941.914 768.985 942.164 770.174 942.706C774.759 944.729 776.825 950.087 774.786 954.675C742.907 1026.47 715.612 1100.38 692.263 1174.15" fill="#DCE6FD"/>
<path d="M2001.37 897.289C1989.61 897.289 1979.89 887.929 1979.53 876.07C1979.29 868.12 1974.24 679.147 2029.88 477.33C2104.82 205.53 2255.11 44.4231 2464.53 11.4519C2567.14 -4.71471 2658.58 19.5086 2736.3 83.4303C2989.65 291.814 3013.77 850.89 3014.64 874.581C3015.12 886.653 3005.71 896.81 2993.64 897.262C2981.49 897.555 2971.41 888.302 2970.96 876.256C2970.74 870.646 2946.68 313.032 2708.49 117.173C2640.85 61.5734 2561.05 40.5144 2471.34 54.6602C2005.89 127.915 2023.01 867.296 2023.24 874.741C2023.61 886.813 2014.12 896.917 2002.05 897.262C2001.82 897.289 2001.6 897.289 2001.37 897.289" fill="url(#paint1_linear_4_3)"/>
<path d="M3322.32 3435.14H2945.44H2188.65C2189.35 3429.04 2189.57 3422.8 2189.26 3416.46L2156.12 2765.75C2156.17 2766.26 2156.24 2766.76 2156.29 2767.27C2156.7 2771.52 2160.31 2774.69 2164.51 2774.69C2164.77 2774.69 2165.07 2774.68 2165.36 2774.66C2169.89 2774.19 2173.21 2770.13 2172.75 2765.58C2171.59 2754.11 2170.98 2742.43 2170.98 2730.9C2170.98 2728.47 2171.03 2726.03 2171.05 2723.57C2171.15 2719.02 2167.54 2715.23 2162.96 2715.14C2158.64 2715.22 2154.62 2718.67 2154.52 2723.24C2154.47 2725.8 2154.42 2728.36 2154.42 2730.9C2154.42 2731.41 2154.42 2731.92 2154.42 2732.43L2082.35 1316.57C2078.28 1236.77 2012.39 1174.15 1932.5 1174.15H1387.42L1456.11 700.407L2867.43 676.675L3237.81 2922.74C3236.65 2925.22 3236.21 2928.07 3236.74 2930.96C3237.25 2933.64 3238.54 2935.99 3240.31 2937.8L3322.32 3435.14V3435.14ZM2558.91 3068.32C2558.55 3068.32 2558.21 3068.35 2557.85 3068.39C2544.27 3070.23 2530.4 3071.24 2516.64 3071.43C2512.08 3071.48 2508.42 3075.24 2508.47 3079.8C2508.54 3084.34 2512.22 3087.98 2516.73 3087.98H2516.85C2531.28 3087.79 2545.82 3086.71 2560.05 3084.8C2564.58 3084.19 2567.76 3080.03 2567.15 3075.48C2566.6 3071.31 2562.98 3068.32 2558.91 3068.32V3068.32ZM2432.71 3062.39C2428.93 3062.39 2425.51 3064.96 2424.62 3068.8C2423.6 3073.26 2426.36 3077.7 2430.82 3078.74C2444.86 3081.98 2459.23 3084.39 2473.56 3085.94C2473.85 3085.96 2474.16 3085.98 2474.46 3085.98C2478.63 3085.98 2482.21 3082.84 2482.67 3078.59C2483.16 3074.04 2479.89 3069.96 2475.33 3069.48C2461.66 3068 2447.94 3065.7 2434.55 3062.6C2433.92 3062.46 2433.32 3062.39 2432.71 3062.39V3062.39ZM2640.7 3046.88C2639.68 3046.88 2638.67 3047.07 2637.67 3047.47C2624.92 3052.54 2611.71 3056.88 2598.38 3060.39C2593.96 3061.55 2591.32 3066.07 2592.49 3070.48C2593.46 3074.2 2596.83 3076.66 2600.49 3076.66C2601.19 3076.66 2601.89 3076.58 2602.59 3076.39C2616.56 3072.72 2630.4 3068.16 2643.76 3062.86C2648 3061.16 2650.08 3056.35 2648.39 3052.11C2647.13 3048.86 2644 3046.88 2640.7 3046.88ZM2353.27 3033.43C2350.27 3033.43 2347.36 3035.07 2345.88 3037.94C2343.8 3042 2345.42 3046.99 2349.49 3049.07C2362.32 3055.63 2375.7 3061.46 2389.25 3066.39C2390.17 3066.72 2391.14 3066.9 2392.08 3066.9C2395.45 3066.9 2398.63 3064.8 2399.87 3061.46C2401.44 3057.16 2399.21 3052.4 2394.92 3050.84C2382 3046.12 2369.25 3040.58 2357.03 3034.32C2355.82 3033.72 2354.53 3033.43 2353.27 3033.43V3033.43ZM2714.83 3006.39C2713.16 3006.39 2711.49 3006.88 2710.03 3007.94C2698.86 3015.94 2687.08 3023.32 2675.03 3029.9C2671.03 3032.1 2669.55 3037.12 2671.73 3041.14C2673.23 3043.88 2676.07 3045.44 2679 3045.44C2680.34 3045.44 2681.69 3045.12 2682.98 3044.43C2695.58 3037.52 2707.95 3029.78 2719.66 3021.4C2723.39 3018.74 2724.24 3013.56 2721.57 3009.84C2719.95 3007.59 2717.43 3006.39 2714.83 3006.39V3006.39ZM2299.7 2999.62C2297.2 2999.62 2294.76 3000.74 2293.11 3002.86C2290.34 3006.48 2291.02 3011.68 2294.66 3014.47C2300.19 3018.7 2305.95 3022.86 2311.82 3026.83C2313.25 3027.79 2314.85 3028.26 2316.45 3028.26C2319.12 3028.26 2321.71 3026.98 2323.31 3024.62C2325.88 3020.83 2324.89 3015.68 2321.11 3013.12C2315.51 3009.33 2310 3005.36 2304.72 3001.32C2303.22 3000.18 2301.47 2999.62 2299.7 2999.62V2999.62ZM2777.18 2949.32C2774.85 2949.32 2772.53 2950.3 2770.88 2952.2C2761.96 2962.61 2752.28 2972.62 2742.15 2981.92C2738.76 2985 2738.54 2990.24 2741.64 2993.62C2743.27 2995.39 2745.5 2996.3 2747.75 2996.3C2749.74 2996.3 2751.75 2995.58 2753.33 2994.12C2763.97 2984.38 2774.1 2973.9 2783.46 2962.98C2786.44 2959.51 2786.03 2954.28 2782.56 2951.31C2781.01 2949.98 2779.09 2949.32 2777.18 2949.32V2949.32ZM3135.37 2923.75C3128.22 2923.75 3122.25 2929.47 3122.01 2936.7C3121.77 2944.1 3127.56 2950.3 3134.96 2950.55C3141.16 2950.75 3147.37 2950.86 3153.52 2950.86C3162.32 2950.86 3171.17 2950.64 3179.9 2950.22C3187.29 2949.86 3192.99 2943.56 3192.63 2936.18C3192.26 2929 3186.35 2923.43 3179.22 2923.43C3179 2923.43 3178.78 2923.44 3178.59 2923.44C3170.32 2923.86 3161.96 2924.06 3153.57 2924.06C3147.68 2924.06 3141.77 2923.96 3135.85 2923.76C3135.68 2923.75 3135.51 2923.75 3135.37 2923.75V2923.75ZM3021.68 2907.34C3015.74 2907.34 3010.28 2911.36 3008.71 2917.39C3006.86 2924.55 3011.18 2931.87 3018.33 2933.72C3032.78 2937.45 3047.57 2940.63 3062.3 2943.15C3063.08 2943.27 3063.83 2943.34 3064.58 2943.34C3070.98 2943.34 3076.66 2938.72 3077.77 2932.19C3079.03 2924.91 3074.11 2917.97 3066.81 2916.74C3052.83 2914.34 3038.77 2911.32 3025.05 2907.78C3023.91 2907.48 3022.79 2907.34 3021.68 2907.34V2907.34ZM2824.04 2878.92C2820.98 2878.92 2818.07 2880.6 2816.62 2883.48C2810.46 2895.75 2803.48 2907.78 2795.85 2919.23C2793.32 2923.03 2794.34 2928.18 2798.15 2930.7C2799.55 2931.64 2801.15 2932.1 2802.73 2932.1C2805.4 2932.1 2808.04 2930.8 2809.61 2928.4C2817.61 2916.39 2824.96 2903.78 2831.41 2890.92C2833.47 2886.83 2831.82 2881.87 2827.72 2879.82C2826.53 2879.22 2825.27 2878.92 2824.04 2878.92V2878.92ZM2914.36 2866.43C2909.51 2866.43 2904.81 2869.08 2902.46 2873.7C2899.06 2880.28 2901.66 2888.35 2908.23 2891.74C2921.51 2898.58 2935.23 2904.92 2949.05 2910.6C2950.72 2911.3 2952.44 2911.63 2954.14 2911.63C2959.4 2911.63 2964.42 2908.5 2966.55 2903.32C2969.36 2896.48 2966.09 2888.64 2959.26 2885.83C2946.12 2880.43 2933.1 2874.4 2920.49 2867.91C2918.53 2866.91 2916.45 2866.43 2914.36 2866.43V2866.43ZM2835.89 2816.71C2831.87 2816.71 2827.89 2818.51 2825.25 2821.95C2820.77 2827.83 2821.86 2836.24 2827.75 2840.74C2833.56 2845.2 2839.5 2849.58 2845.44 2853.75C2847.79 2855.39 2850.48 2856.18 2853.15 2856.18C2857.35 2856.18 2861.49 2854.2 2864.11 2850.48C2868.37 2844.43 2866.92 2836.07 2860.86 2831.82C2855.21 2827.86 2849.56 2823.71 2844.04 2819.47C2841.61 2817.6 2838.75 2816.71 2835.89 2816.71ZM2171.56 2800.6C2170.93 2800.6 2170.3 2800.67 2169.67 2800.81C2165.21 2801.84 2162.45 2806.28 2163.47 2810.74C2165.04 2817.59 2166.83 2824.48 2168.82 2831.23C2169.86 2834.84 2173.19 2837.18 2176.75 2837.18C2177.53 2837.18 2178.33 2837.07 2179.08 2836.84C2183.46 2835.55 2185.99 2830.95 2184.7 2826.56C2182.81 2820.13 2181.09 2813.56 2179.59 2807.03C2178.71 2803.2 2175.32 2800.6 2171.56 2800.6V2800.6ZM2175.05 2630.1C2171.42 2630.1 2168.07 2632.51 2167.05 2636.2C2163.22 2650.3 2160.22 2664.81 2158.13 2679.33C2157.48 2683.86 2160.6 2688.06 2165.14 2688.71C2165.55 2688.76 2165.94 2688.79 2166.33 2688.79C2170.37 2688.79 2173.91 2685.81 2174.49 2681.7C2176.51 2667.84 2179.37 2654 2183.03 2640.55C2184.24 2636.13 2181.62 2631.59 2177.21 2630.39C2176.51 2630.19 2175.76 2630.1 2175.05 2630.1V2630.1ZM2207.75 2550.6C2204.87 2550.6 2202.08 2552.12 2200.55 2554.81C2193.33 2567.58 2186.86 2580.92 2181.28 2594.46C2179.54 2598.68 2181.55 2603.52 2185.79 2605.27C2186.81 2605.68 2187.88 2605.88 2188.92 2605.88C2192.19 2605.88 2195.27 2603.95 2196.58 2600.76C2201.91 2587.84 2208.07 2575.14 2214.95 2562.96C2217.21 2558.99 2215.8 2553.93 2211.83 2551.68C2210.54 2550.96 2209.14 2550.6 2207.75 2550.6ZM2258.95 2481.6C2256.75 2481.6 2254.59 2482.45 2252.96 2484.15C2242.86 2494.74 2233.3 2506.08 2224.58 2517.87C2221.84 2521.53 2222.61 2526.72 2226.3 2529.44C2227.78 2530.53 2229.5 2531.07 2231.2 2531.07C2233.74 2531.07 2236.24 2529.91 2237.86 2527.72C2246.2 2516.49 2255.32 2505.67 2264.91 2495.57C2268.09 2492.27 2267.94 2487.03 2264.65 2483.88C2263.05 2482.35 2260.99 2481.6 2258.95 2481.6V2481.6ZM2631.03 2412.79C2623.64 2412.93 2617.75 2419.05 2617.89 2426.46C2618.18 2441.65 2619.13 2457 2620.7 2472.06C2621.43 2478.95 2627.22 2484.05 2634.01 2484.05C2634.47 2484.05 2634.96 2484.04 2635.42 2483.99C2642.79 2483.22 2648.12 2476.63 2647.34 2469.27C2645.86 2454.96 2644.94 2440.39 2644.68 2425.93C2644.53 2418.63 2638.57 2412.79 2631.3 2412.79H2631.03V2412.79ZM2325.35 2427.1C2323.84 2427.1 2322.32 2427.51 2320.94 2428.39C2308.57 2436.21 2296.57 2444.9 2285.23 2454.18C2281.69 2457.08 2281.18 2462.3 2284.09 2465.83C2285.71 2467.82 2288.09 2468.86 2290.49 2468.86C2292.33 2468.86 2294.2 2468.24 2295.73 2466.97C2306.54 2458.11 2318 2449.84 2329.78 2442.37C2333.64 2439.94 2334.8 2434.81 2332.35 2430.95C2330.78 2428.47 2328.11 2427.1 2325.35 2427.1V2427.1ZM2403.02 2390.44C2402.14 2390.44 2401.27 2390.57 2400.42 2390.85C2386.53 2395.41 2372.76 2400.91 2359.53 2407.16C2355.38 2409.11 2353.61 2414.04 2355.58 2418.17C2356.98 2421.16 2359.96 2422.92 2363.07 2422.92C2364.26 2422.92 2365.44 2422.67 2366.58 2422.12C2379.21 2416.16 2392.35 2410.93 2405.59 2406.59C2409.93 2405.16 2412.3 2400.48 2410.87 2396.15C2409.73 2392.66 2406.48 2390.44 2403.02 2390.44V2390.44ZM2487.18 2373.95C2487.04 2373.95 2486.89 2373.95 2486.72 2373.96C2472.08 2374.99 2457.39 2376.92 2443.06 2379.72C2438.58 2380.62 2435.65 2384.96 2436.52 2389.44C2437.29 2393.39 2440.76 2396.12 2444.64 2396.12C2445.17 2396.12 2445.71 2396.08 2446.24 2395.97C2459.91 2393.3 2473.92 2391.44 2487.89 2390.48C2492.44 2390.15 2495.88 2386.2 2495.57 2381.64C2495.25 2377.24 2491.57 2373.95 2487.18 2373.95V2373.95ZM2530.14 2373.6C2525.9 2373.6 2522.31 2377.11 2522.09 2381.47C2521.85 2386.03 2525.36 2389.92 2529.92 2390.16C2531.74 2390.26 2533.56 2390.36 2535.4 2390.49C2547.59 2391.33 2559.78 2392.84 2571.66 2394.95C2572.17 2395.04 2572.66 2395.08 2573.12 2395.08C2577.07 2395.08 2580.56 2392.26 2581.26 2388.24C2582.06 2383.75 2579.08 2379.45 2574.57 2378.65C2562.11 2376.44 2549.31 2374.87 2536.59 2373.99C2534.65 2373.84 2532.71 2373.74 2530.79 2373.63C2530.57 2373.61 2530.36 2373.6 2530.14 2373.6V2373.6ZM2641.96 2296.57C2635.71 2296.57 2630.13 2300.93 2628.82 2307.28C2625.79 2322.09 2623.35 2337.26 2621.55 2352.36C2620.68 2359.71 2625.94 2366.37 2633.28 2367.24C2633.82 2367.29 2634.35 2367.33 2634.88 2367.33C2641.57 2367.33 2647.34 2362.32 2648.17 2355.51C2649.86 2341.16 2652.19 2326.75 2655.08 2312.67C2656.56 2305.43 2651.9 2298.33 2644.65 2296.84C2643.76 2296.67 2642.86 2296.57 2641.96 2296.57V2296.57ZM2678.18 2185.61C2673.06 2185.61 2668.22 2188.52 2665.96 2193.45C2659.66 2207.25 2653.89 2221.51 2648.8 2235.79C2646.33 2242.76 2649.96 2250.43 2656.92 2252.92C2658.4 2253.44 2659.92 2253.7 2661.43 2253.7C2666.93 2253.7 2672.09 2250.27 2674.03 2244.79C2678.88 2231.21 2684.36 2217.69 2690.35 2204.57C2693.4 2197.85 2690.44 2189.9 2683.71 2186.83C2681.91 2186 2680.02 2185.61 2678.18 2185.61V2185.61ZM2738.3 2085.52C2734.27 2085.52 2730.27 2087.33 2727.63 2090.77C2718.42 2102.83 2709.6 2115.43 2701.43 2128.21C2697.45 2134.45 2699.29 2142.75 2705.52 2146.72C2707.75 2148.15 2710.25 2148.83 2712.72 2148.83C2717.13 2148.83 2721.47 2146.64 2724.04 2142.64C2731.78 2130.47 2740.16 2118.51 2748.91 2107.07C2753.4 2101.19 2752.28 2092.77 2746.42 2088.28C2743.97 2086.43 2741.13 2085.52 2738.3 2085.52V2085.52ZM2819.09 2001.29C2816.06 2001.29 2813.03 2002.31 2810.51 2004.4C2798.85 2014.13 2787.46 2024.45 2776.69 2035.09C2771.43 2040.29 2771.39 2048.79 2776.57 2054.05C2779.19 2056.71 2782.66 2058.03 2786.12 2058.03C2789.52 2058.03 2792.91 2056.75 2795.53 2054.16C2805.76 2044.06 2816.57 2034.23 2827.67 2024.99C2833.37 2020.24 2834.12 2011.8 2829.4 2006.12C2826.75 2002.93 2822.92 2001.29 2819.09 2001.29V2001.29ZM2916.52 1937.04C2914.48 1937.04 2912.4 1937.51 2910.46 1938.51C2896.93 1945.4 2883.55 1952.95 2870.65 1960.96C2864.38 1964.87 2862.46 1973.13 2866.36 1979.41C2868.91 1983.49 2873.27 1985.73 2877.76 1985.73C2880.18 1985.73 2882.63 1985.09 2884.81 1983.72C2897.05 1976.11 2909.78 1968.93 2922.63 1962.39C2929.2 1959.03 2931.84 1950.95 2928.47 1944.36C2926.09 1939.72 2921.41 1937.04 2916.52 1937.04V1937.04ZM3025.75 1896.1C3024.66 1896.1 3023.57 1896.23 3022.5 1896.49C3007.76 1900.18 2993.05 1904.56 2978.72 1909.51C2971.72 1911.93 2968.01 1919.55 2970.41 1926.55C2972.32 1932.09 2977.51 1935.59 2983.08 1935.59C2984.54 1935.59 2985.99 1935.35 2987.45 1934.85C3001.07 1930.15 3015.06 1925.99 3029.02 1922.48C3036.2 1920.68 3040.56 1913.41 3038.74 1906.24C3037.22 1900.13 3031.74 1896.1 3025.75 1896.1Z" fill="url(#paint2_linear_4_3)"/>
<path d="M3594.41 3435.14H3322.3L3240.29 2937.81C3242.78 2940.37 3246.21 2941.89 3249.89 2941.89C3250.71 2941.89 3251.56 2941.81 3252.4 2941.66C3267.03 2938.9 3281.76 2935.48 3296.17 2931.47C3303.31 2929.5 3307.49 2922.12 3305.5 2914.98C3303.86 2909.05 3298.47 2905.17 3292.6 2905.17C3291.41 2905.17 3290.19 2905.33 3289.03 2905.65C3275.33 2909.45 3261.34 2912.7 3247.43 2915.31C3243.07 2916.14 3239.58 2919.01 3237.8 2922.74L2867.42 676.687L3141.52 700.408L3547.85 2685.26L3556.1 2725.5C3549.14 2734.52 3541.87 2743.36 3534.33 2751.88C3529.44 2757.42 3529.97 2765.89 3535.52 2770.78C3538.06 2773.04 3541.23 2774.14 3544.38 2774.14C3548.11 2774.14 3551.79 2772.61 3554.43 2769.61C3557.34 2766.3 3560.22 2762.96 3563.08 2759.58L3679.57 3328.64C3690.81 3383.57 3649.58 3435.14 3594.41 3435.14V3435.14ZM3399.09 2862.42C3396.98 2862.42 3394.78 2862.93 3392.77 2864.01C3380.26 2870.71 3367.33 2876.97 3354.35 2882.58C3347.55 2885.52 3344.43 2893.41 3347.37 2900.2C3349.56 2905.26 3354.48 2908.29 3359.66 2908.29C3361.43 2908.29 3363.23 2907.93 3364.98 2907.18C3378.65 2901.27 3392.27 2894.69 3405.44 2887.62C3411.97 2884.13 3414.43 2876.01 3410.91 2869.49C3408.51 2864.98 3403.88 2862.42 3399.09 2862.42V2862.42ZM3493.74 2797.38C3490.64 2797.38 3487.55 2798.46 3485.01 2800.65C3474.28 2809.9 3463.01 2818.82 3451.53 2827.17C3445.53 2831.52 3444.21 2839.9 3448.57 2845.89C3451.19 2849.49 3455.26 2851.41 3459.41 2851.41C3462.14 2851.41 3464.89 2850.58 3467.27 2848.85C3479.35 2840.08 3491.2 2830.67 3502.52 2820.94C3508.1 2816.1 3508.73 2807.65 3503.89 2802.03C3501.25 2798.97 3497.52 2797.38 3493.74 2797.38ZM3327.43 1910.37C3321.9 1910.37 3316.74 1913.81 3314.79 1919.31C3312.33 1926.28 3315.98 1933.93 3322.96 1936.41C3336.55 1941.22 3350.09 1946.69 3363.21 1952.64C3365 1953.46 3366.88 1953.85 3368.73 1953.85C3373.84 1953.85 3378.7 1950.93 3380.95 1945.98C3383.99 1939.25 3381.03 1931.3 3374.29 1928.24C3360.48 1921.97 3346.23 1916.22 3331.9 1911.14C3330.42 1910.62 3328.91 1910.37 3327.43 1910.37V1910.37ZM3213.63 1884.03C3206.94 1884.03 3201.18 1889.08 3200.39 1895.88C3199.51 1903.22 3204.8 1909.88 3212.13 1910.75C3226.49 1912.41 3240.9 1914.7 3255.02 1917.58C3255.92 1917.77 3256.82 1917.85 3257.69 1917.85C3263.93 1917.85 3269.51 1913.46 3270.81 1907.12C3272.29 1899.86 3267.61 1892.8 3260.36 1891.32C3245.5 1888.29 3230.32 1885.88 3215.25 1884.12C3214.69 1884.05 3214.16 1884.03 3213.63 1884.03ZM3141.41 1880.6H3141.12C3125.94 1880.92 3110.6 1881.89 3095.53 1883.5C3088.18 1884.29 3082.84 1890.89 3083.63 1898.25C3084.37 1905.12 3090.19 1910.22 3096.93 1910.22C3097.41 1910.22 3097.91 1910.2 3098.39 1910.16C3112.69 1908.62 3127.26 1907.69 3141.68 1907.4C3149.08 1907.24 3154.95 1901.12 3154.79 1893.72C3154.64 1886.41 3148.69 1880.6 3141.41 1880.6Z" fill="url(#paint3_linear_4_3)"/>
<path d="M2689.52 891.349C2677.84 891.349 2668.14 882.083 2667.69 870.314C2667.48 864.696 2643.44 307.1 2405.24 111.241C2337.59 55.6466 2257.82 34.5591 2168.09 48.724C1703 121.918 1719.76 861.368 1719.98 868.823C1720.34 880.885 1710.86 890.976 1698.78 891.322C1686.58 891.828 1676.64 882.216 1676.28 870.154C1676.04 862.193 1670.98 673.231 1726.62 471.407C1801.56 199.585 1951.86 38.4731 2161.27 5.51044C2263.89 -10.6248 2355.32 13.5779 2433.04 77.5063C2686.38 285.879 2710.48 844.967 2711.38 868.637C2711.84 880.725 2702.44 890.869 2690.38 891.322C2690.08 891.348 2689.82 891.349 2689.52 891.349" fill="url(#paint4_linear_4_3)"/>
<path d="M418.776 3562.91C360.916 3562.91 313.784 3515.98 313.784 3457.87V3059.53V1847.92V1344.47C313.784 1275.12 355.236 1215.46 414.718 1188.88C422.817 1185.27 431.244 1182.26 439.953 1179.93C435.158 1187.58 432.384 1196.67 432.445 1206.48L445.476 3421.94C445.6 3443.19 461.65 3460.99 482.796 3463.21C567.594 3472.1 689.633 3475.58 829.252 3475.58C1261.66 3475.58 1861.95 3442.07 2040.75 3431.5C2069.66 3429.79 2091.73 3405.06 2090.19 3376.14L1978.08 1266.9C1976.8 1242.4 1956.5 1223.62 1932.39 1223.62C1931.22 1223.62 1930.02 1223.65 1928.82 1223.75C1816.32 1232.38 1699.14 1235.97 1582.02 1235.97C1210.17 1235.97 839.224 1199.8 622.977 1174.16H673.248H692.263H951.584H1387.4H1932.49C2012.39 1174.16 2078.28 1236.79 2082.34 1316.59L2154.41 2732.43C2154.47 2743.51 2155.05 2754.72 2156.12 2765.76L2189.25 3416.46C2189.58 3422.81 2189.36 3429.05 2188.64 3435.14C2182.31 3489.09 2136.91 3531.7 2080.75 3532.73L987.185 3552.61L420.725 3562.9C420.076 3562.91 419.423 3562.91 418.776 3562.91" fill="url(#paint5_linear_4_3)"/>
<path d="M663.344 3527.19H663.292L477.544 3524.79C415.434 3523.99 364.904 3472.81 364.904 3410.69V3130.25C364.904 3128.06 366.68 3126.29 368.87 3126.29C371.06 3126.29 372.835 3128.06 372.835 3130.25V3410.69C372.835 3468.49 419.852 3516.11 477.647 3516.86L663.392 3519.26C665.583 3519.29 667.335 3521.1 667.308 3523.29C667.279 3525.46 665.51 3527.19 663.344 3527.19Z" fill="#91B3FA"/>
<path d="M368.87 3047.34C366.68 3047.34 364.904 3045.57 364.904 3043.38V2997.95C364.904 2995.77 366.68 2993.99 368.87 2993.99C371.06 2993.99 372.835 2995.77 372.835 2997.95V3043.38C372.835 3045.57 371.06 3047.34 368.87 3047.34Z" fill="#91B3FA"/>
<path d="M829.248 3475.58C689.631 3475.58 567.591 3472.1 482.794 3463.21C461.649 3460.99 445.6 3443.2 445.473 3421.94L432.442 1206.47C432.384 1196.69 435.157 1187.58 439.951 1179.93C440.951 1178.35 442.037 1176.82 443.203 1175.36C452.318 1163.93 466.343 1156.68 481.808 1156.68C484.03 1156.68 486.283 1156.84 488.554 1157.15C503.425 1159.16 521.014 1161.49 541.086 1164.07C565.003 1167.13 592.469 1170.55 622.975 1174.16C839.222 1199.79 1210.17 1235.97 1582.01 1235.97C1699.13 1235.97 1816.31 1232.39 1928.83 1223.74C1930.02 1223.66 1931.21 1223.62 1932.38 1223.62C1956.51 1223.62 1976.78 1242.42 1978.09 1266.89L2090.19 3376.14C2091.72 3405.06 2069.65 3429.8 2040.74 3431.5C1861.94 3442.08 1261.66 3475.58 829.248 3475.58V3475.58ZM503.248 1211.42C477.311 1211.42 455.582 1232.59 455.74 1259.33L468.283 3391.37C468.402 3411.83 483.847 3428.96 504.197 3431.09C585.801 3439.63 703.24 3442.99 837.608 3442.99C1253.73 3442.99 1831.41 3410.76 2003.47 3400.57C2031.3 3398.93 2052.55 3375.13 2051.07 3347.29L1943.18 1317.48C1941.93 1293.93 1922.42 1275.84 1899.21 1275.84C1898.08 1275.84 1896.93 1275.88 1895.78 1275.95C1787.5 1284.28 1674.73 1287.71 1562.03 1287.71C1111.33 1287.71 661.997 1232.51 509.739 1211.86C507.551 1211.57 505.387 1211.42 503.248 1211.42" fill="url(#paint6_linear_4_3)"/>
<path d="M455.743 1259.32C455.572 1230.36 481.043 1207.95 509.743 1211.85C700.085 1237.66 1354.62 1317.48 1895.79 1275.95C1920.47 1274.06 1941.88 1292.75 1943.2 1317.46L2051.08 3347.29C2052.56 3375.13 2031.3 3398.92 2003.47 3400.56C1775.88 3414.04 838.533 3466.11 504.2 3431.09C483.851 3428.95 468.405 3411.83 468.285 3391.37L455.743 1259.32Z" fill="#BDD0FB"/>
<path d="M973.314 1881.94C854.353 1881.94 731.076 1878.86 679.005 1877.41C664.52 1876.99 652.83 1865.48 652.156 1851.01L631.942 1415.85C631.16 1399.02 644.605 1385.06 661.302 1385.06C661.65 1385.06 662.002 1385.07 662.352 1385.09L1138.73 1401.74C1155.03 1402.32 1168.82 1414.05 1171.82 1430.1C1190.42 1529.39 1184.51 1766.93 1181.79 1848.54C1181.26 1864.61 1168.58 1877.57 1152.54 1878.41C1102.34 1881.04 1038.49 1881.94 973.314 1881.94Z" fill="#DFE9FD"/>
<path d="M1834.68 1453.71H1303.37C1300.05 1453.71 1296.42 1451.16 1295.31 1448.02L1285.56 1420.3C1284.47 1417.2 1286.23 1414.7 1289.48 1414.7C1289.51 1414.7 1289.57 1414.7 1289.6 1414.72L1833.83 1424.41C1837.15 1424.47 1839.95 1427.23 1840.04 1430.55L1840.55 1447.68C1840.64 1451 1838 1453.71 1834.68 1453.71" fill="#E5ECFD"/>
<path d="M1834.68 1561.06H1303.36C1300.04 1561.06 1296.43 1558.5 1295.32 1555.37L1285.55 1527.65C1284.46 1524.55 1286.23 1522.06 1289.48 1522.06C1289.51 1522.06 1289.56 1522.06 1289.6 1522.06L1833.83 1531.76C1837.15 1531.82 1839.95 1534.58 1840.04 1537.9L1840.54 1555.04C1840.64 1558.36 1838 1561.06 1834.68 1561.06" fill="#E5ECFD"/>
<path d="M1834.68 1673.35H1303.38C1300.06 1673.35 1296.42 1670.78 1295.33 1667.64L1285.56 1639.92C1284.47 1636.83 1286.23 1634.34 1289.48 1634.34C1289.52 1634.34 1289.57 1634.34 1289.6 1634.34L1833.84 1644.05C1837.16 1644.1 1839.95 1646.87 1840.05 1650.19L1840.54 1667.31C1840.64 1670.63 1838 1673.35 1834.68 1673.35" fill="#E5ECFD"/>
<path d="M1885.42 2014.05H668.989C665.667 2014.05 661.258 2011.93 659.189 2009.33L635.568 1979.66C633.513 1977.1 634.512 1975.01 637.785 1975.01C637.805 1975.01 637.825 1975.01 637.845 1975.01L1883.49 1984.81C1886.82 1984.84 1889.71 1987.58 1889.94 1990.89L1891.07 2008.04C1891.28 2011.34 1888.75 2014.05 1885.42 2014.05" fill="#E5ECFD"/>
<path d="M1885.42 2095.19H668.989C665.667 2095.19 661.258 2093.06 659.189 2090.46L635.568 2060.81C633.513 2058.21 634.512 2056.12 637.785 2056.12C637.805 2056.12 637.825 2056.12 637.845 2056.12L1883.49 2065.94C1886.82 2065.96 1889.71 2068.69 1889.94 2072.02L1891.07 2089.16C1891.28 2092.47 1888.75 2095.19 1885.42 2095.19Z" fill="#E5ECFD"/>
<path d="M773.8 2343.93C773.707 2343.93 773.613 2343.93 773.533 2343.91L661.599 2342.71C647.833 2342.57 636.405 2332.05 635.125 2318.34L625.284 2213.03C624.265 2202.14 632.345 2192.5 643.251 2191.66C672.675 2189.41 727.773 2188.37 758.107 2187.94C758.24 2187.94 758.373 2187.94 758.493 2187.94C771.187 2187.94 782.267 2196.59 785.253 2208.97C791.107 2233.23 799.173 2275.37 798.16 2320.02C797.853 2333.3 787.053 2343.93 773.8 2343.93" fill="#E5ECFD"/>
<path d="M1140.79 2285.81H847.08C843.76 2285.81 840.64 2283.13 840.146 2279.83L834.187 2240.17C833.707 2236.97 835.88 2234.45 839.066 2234.45C839.146 2234.45 839.24 2234.45 839.32 2234.45L1140.31 2247.03C1143.63 2247.17 1146.37 2249.99 1146.43 2253.31L1146.75 2279.77C1146.79 2283.09 1144.11 2285.81 1140.79 2285.81" fill="#E5ECFD"/>
<path d="M1383.59 2343.93C1383.49 2343.93 1383.41 2343.93 1383.32 2343.91L1271.39 2342.71C1257.63 2342.57 1246.2 2332.05 1244.92 2318.34L1235.08 2213.03C1234.05 2202.14 1242.13 2192.5 1253.04 2191.66C1282.47 2189.41 1337.57 2188.37 1367.91 2187.94C1368.03 2187.94 1368.16 2187.94 1368.29 2187.94C1380.97 2187.94 1392.05 2196.59 1395.04 2208.97C1400.89 2233.23 1408.97 2275.37 1407.95 2320.02C1407.65 2333.3 1396.84 2343.93 1383.59 2343.93" fill="#E5ECFD"/>
<path d="M1750.57 2285.81H1456.86C1453.54 2285.81 1450.42 2283.13 1449.92 2279.84L1443.97 2240.18C1443.49 2236.97 1445.68 2234.45 1448.86 2234.45C1448.94 2234.45 1449.02 2234.45 1449.1 2234.45L1750.1 2247.04C1753.42 2247.17 1756.17 2250 1756.22 2253.32L1756.54 2279.77C1756.58 2283.09 1753.89 2285.81 1750.57 2285.81" fill="#E5ECFD"/>
<path d="M641.475 2571.01C626.559 2571.01 613.491 2563.17 609.682 2551.91C604.177 2535.64 619.921 2519.72 641.475 2519.72C641.525 2519.72 641.579 2519.72 641.63 2519.72L1867.03 2524.08C1880.52 2524.13 1891.49 2532.54 1891.78 2543.05C1892.09 2553.84 1881 2562.77 1867.12 2562.86L641.76 2571.01C641.664 2571.01 641.571 2571.01 641.475 2571.01" fill="#E5ECFD"/>
<path d="M641.475 2792.39C626.559 2792.39 613.491 2784.54 609.682 2773.27C604.177 2757 619.921 2741.08 641.472 2741.08C641.523 2741.08 641.579 2741.08 641.63 2741.08L1867.03 2745.44C1880.52 2745.49 1891.49 2753.9 1891.78 2764.41C1892.09 2775.22 1881 2784.14 1867.12 2784.23L641.76 2792.39C641.664 2792.39 641.571 2792.39 641.475 2792.39" fill="#E5ECFD"/>
<path d="M641.475 3013.74C626.559 3013.74 613.491 3005.9 609.682 2994.63C604.177 2978.37 619.921 2962.45 641.475 2962.45C641.525 2962.45 641.579 2962.45 641.63 2962.45L1867.03 2966.81C1880.52 2966.86 1891.49 2975.27 1891.78 2985.78C1892.09 2996.6 1881 3005.5 1867.12 3005.59L641.76 3013.74C641.664 3013.74 641.571 3013.74 641.475 3013.74Z" fill="#E5ECFD"/>
<path d="M641.475 3235.11C626.559 3235.11 613.491 3227.27 609.682 3216.01C604.177 3199.74 619.921 3183.82 641.475 3183.82C641.525 3183.82 641.579 3183.82 641.63 3183.82L1867.03 3188.18C1880.52 3188.23 1891.49 3196.65 1891.78 3207.15C1892.09 3217.96 1881 3226.87 1867.12 3226.97L641.76 3235.11C641.664 3235.11 641.571 3235.11 641.475 3235.11Z" fill="#E5ECFD"/>
<path d="M1115.74 1505.1C1113.33 1502.16 1109.57 1500.93 1105.58 1501.02L742.002 1508.65L732.828 1479.48C731.549 1475.42 727.722 1472.82 723.401 1472.92L673.485 1474.22C668.133 1474.38 663.796 1478.09 663.796 1483.44C663.796 1488.77 668.133 1492.27 673.485 1492.17L716.149 1491.15L793.335 1737.8C794.628 1741.95 798.523 1744.82 802.948 1744.87L1058.14 1748.3C1064.12 1748.37 1068.99 1744.61 1068.99 1738.94C1068.99 1733.3 1064.12 1729.41 1058.14 1729.36L810.388 1726.68L790.509 1662.64L1062.76 1663.06C1068.34 1663.06 1073.24 1659.42 1074.8 1654.35L1117.78 1515.41C1118.9 1511.8 1118.14 1508.07 1115.74 1505.1" fill="#91B3FA"/>
<path d="M840.284 1814.67C830.47 1814.43 822.496 1806.49 822.496 1796.94C822.496 1787.37 830.47 1779.74 840.284 1779.93C850.123 1780.11 858.15 1788.07 858.15 1797.68C858.15 1807.28 850.123 1814.91 840.284 1814.67ZM840.284 1760.08C819.283 1759.76 802.297 1776.1 802.297 1796.51C802.297 1816.92 819.283 1833.97 840.284 1834.53C861.403 1835.08 878.684 1818.74 878.684 1798.11C878.684 1777.46 861.403 1760.41 840.284 1760.08Z" fill="#91B3FA"/>
<path d="M1010.38 1818.65C1000.1 1818.42 991.735 1810.25 991.735 1800.46C991.735 1790.69 1000.1 1782.89 1010.38 1783.06C1020.73 1783.25 1029.14 1791.42 1029.14 1801.25C1029.14 1811.09 1020.73 1818.89 1010.38 1818.65ZM1010.38 1762.72C988.35 1762.39 970.523 1779.13 970.523 1800.04C970.523 1820.93 988.35 1838.41 1010.38 1839C1032.56 1839.58 1050.7 1822.86 1050.7 1801.71C1050.7 1780.56 1032.56 1763.07 1010.38 1762.72" fill="#91B3FA"/>
<path d="M1225.85 1009.48C1203.22 1009.48 1184.88 991.113 1184.88 968.473C1184.88 945.855 1203.22 927.512 1225.85 927.512C1248.48 927.512 1266.82 945.855 1266.82 968.473C1266.82 991.113 1248.48 1009.48 1225.85 1009.48ZM1298.11 887.856C1245.8 851.448 1200.32 852.175 1168.29 861.624C1139.08 870.24 1120.14 898.459 1122.92 928.795L1136.73 1079.51L1301.06 1094.11C1301.06 1094.11 1400.73 959.238 1298.11 887.856Z" fill="url(#paint7_linear_4_3)"/>
<path d="M1148.84 969.072C1146.81 969.072 1145.08 967.52 1144.89 965.459L1143.23 947.225C1140.57 918.344 1158.76 891.439 1186.45 883.257C1206.07 877.477 1226.28 876.648 1246.52 880.792C1248.67 881.239 1250.04 883.321 1249.6 885.468C1249.16 887.614 1247.08 888.974 1244.92 888.57C1225.96 884.681 1207.05 885.447 1188.69 890.866C1164.62 897.964 1148.81 921.362 1151.12 946.524L1152.79 964.736C1153 966.925 1151.38 968.838 1149.21 969.05C1149.08 969.071 1148.96 969.072 1148.84 969.072ZM1153.15 1016.1C1151.12 1016.1 1149.4 1014.55 1149.21 1012.51L1147.01 988.495C1146.8 986.306 1148.41 984.373 1150.6 984.181C1152.81 983.969 1154.71 985.605 1154.91 987.773L1157.11 1011.79C1157.31 1013.95 1155.69 1015.89 1153.52 1016.08C1153.39 1016.1 1153.27 1016.1 1153.15 1016.1" fill="#91B3FA"/>
<path d="M912.438 1176.94V1101.14C912.438 1074.98 934.131 1054.03 960.279 1054.94L1482.78 1072.82C1505.98 1073.62 1524.75 1091.93 1526.14 1115.09L1530.52 1187.9L912.438 1176.94" fill="url(#paint8_linear_4_3)"/>
<path d="M1107.28 1083.46H1084.82C1082.61 1083.46 1080.84 1081.7 1080.84 1079.52C1080.84 1077.33 1082.61 1075.55 1084.82 1075.55H1107.28C1109.47 1075.55 1111.24 1077.33 1111.24 1079.52C1111.24 1081.7 1109.47 1083.46 1107.28 1083.46Z" fill="#91B3FA"/>
<path d="M940.733 1153.13C938.534 1153.13 936.759 1151.35 936.759 1149.17V1118.5C936.759 1094.82 956.027 1075.55 979.72 1075.55H1062.33C1064.52 1075.55 1066.31 1077.33 1066.31 1079.52C1066.31 1081.7 1064.52 1083.46 1062.33 1083.46H979.72C960.414 1083.46 944.693 1099.19 944.693 1118.5V1149.17C944.693 1151.35 942.92 1153.13 940.733 1153.13Z" fill="#91B3FA"/>
<path d="M699.544 1196.06C700.805 1169.82 722.442 1149.18 748.722 1149.18L1662.44 1149.16C1695.29 1149.16 1723.39 1172.8 1728.99 1205.18L1729.77 1209.64C1735.92 1245.1 1708.6 1277.53 1672.62 1277.53H735.189C713.655 1277.53 696.491 1259.53 697.527 1238.02L699.544 1196.06" fill="url(#paint9_linear_4_3)"/>
<path d="M2634 2484.06C2627.23 2484.06 2621.43 2478.95 2620.71 2472.06C2619.13 2457 2618.17 2441.65 2617.89 2426.45C2617.74 2419.06 2623.63 2412.94 2631.01 2412.79H2631.3C2638.57 2412.79 2644.55 2418.63 2644.68 2425.94C2644.96 2440.39 2645.86 2454.96 2647.34 2469.27C2648.13 2476.63 2642.78 2483.21 2635.42 2483.99C2634.96 2484.04 2634.48 2484.06 2634 2484.06V2484.06ZM2634.88 2367.33C2634.35 2367.33 2633.83 2367.29 2633.28 2367.24C2625.95 2366.37 2620.68 2359.71 2621.56 2352.36C2623.35 2337.25 2625.79 2322.09 2628.83 2307.28C2630.14 2300.93 2635.71 2296.57 2641.95 2296.57C2642.85 2296.57 2643.76 2296.67 2644.66 2296.84C2651.91 2298.33 2656.56 2305.43 2655.09 2312.67C2652.19 2326.75 2649.85 2341.16 2648.17 2355.51C2647.34 2362.32 2641.56 2367.33 2634.88 2367.33V2367.33ZM2661.43 2253.69C2659.92 2253.69 2658.41 2253.44 2656.93 2252.92C2649.96 2250.43 2646.32 2242.76 2648.78 2235.79C2653.89 2221.51 2659.66 2207.25 2665.97 2193.45C2668.22 2188.52 2673.06 2185.61 2678.17 2185.61C2680.03 2185.61 2681.91 2186 2683.72 2186.83C2690.44 2189.89 2693.41 2197.85 2690.33 2204.57C2684.35 2217.69 2678.87 2231.21 2674.02 2244.79C2672.08 2250.27 2666.93 2253.69 2661.43 2253.69V2253.69ZM2712.71 2148.83C2710.25 2148.83 2707.76 2148.15 2705.53 2146.71C2699.29 2142.74 2697.45 2134.46 2701.43 2128.22C2709.59 2115.43 2718.41 2102.83 2727.63 2090.77C2730.27 2087.32 2734.26 2085.51 2738.28 2085.51C2741.12 2085.51 2743.98 2086.43 2746.43 2088.29C2752.28 2092.78 2753.41 2101.19 2748.92 2107.06C2740.16 2118.5 2731.78 2130.47 2724.02 2142.63C2721.47 2146.65 2717.15 2148.83 2712.71 2148.83V2148.83ZM2786.12 2058.02C2782.65 2058.02 2779.2 2056.71 2776.58 2054.05C2771.38 2048.79 2771.43 2040.29 2776.71 2035.1C2787.45 2024.44 2798.85 2014.14 2810.51 2004.4C2813.02 2002.3 2816.06 2001.3 2819.09 2001.3C2822.93 2001.3 2826.73 2002.94 2829.4 2006.12C2834.13 2011.8 2833.37 2020.25 2827.67 2024.99C2816.58 2034.22 2805.77 2044.05 2795.53 2054.16C2792.91 2056.76 2789.5 2058.02 2786.12 2058.02V2058.02ZM2877.76 1985.73C2873.28 1985.73 2868.89 1983.5 2866.36 1979.42C2862.45 1973.13 2864.37 1964.86 2870.66 1960.95C2883.54 1952.94 2896.93 1945.4 2910.44 1938.5C2912.39 1937.5 2914.48 1937.04 2916.54 1937.04C2921.4 1937.04 2926.1 1939.73 2928.48 1944.36C2931.84 1950.95 2929.2 1959.03 2922.63 1962.39C2909.77 1968.94 2897.06 1976.1 2884.81 1983.72C2882.63 1985.1 2880.16 1985.73 2877.76 1985.73" fill="url(#paint10_linear_4_3)"/>
<path d="M3368.73 1953.85C3366.88 1953.85 3365.01 1953.46 3363.19 1952.64C3350.1 1946.69 3336.54 1941.22 3322.96 1936.41C3315.97 1933.93 3312.33 1926.28 3314.79 1919.3C3316.73 1913.81 3321.9 1910.37 3327.41 1910.37C3328.91 1910.37 3330.41 1910.63 3331.89 1911.14C3346.21 1916.22 3360.49 1921.97 3374.29 1928.24C3381.03 1931.3 3384.01 1939.25 3380.96 1945.98C3378.7 1950.93 3373.82 1953.85 3368.73 1953.85" fill="url(#paint11_linear_4_3)"/>
<path d="M2983.07 1935.6C2977.51 1935.6 2972.32 1932.09 2970.4 1926.56C2967.97 1919.56 2971.71 1911.95 2978.71 1909.52C2993.04 1904.57 3007.76 1900.2 3022.48 1896.49C3023.56 1896.24 3024.66 1896.11 3025.74 1896.11C3031.73 1896.11 3037.22 1900.14 3038.72 1906.24C3040.55 1913.41 3036.18 1920.68 3029 1922.48C3015.03 1925.99 3001.05 1930.16 2987.44 1934.86C2985.98 1935.36 2984.51 1935.6 2983.07 1935.6" fill="url(#paint12_linear_4_3)"/>
<path d="M3257.71 1917.84C3256.83 1917.84 3255.94 1917.77 3255.03 1917.58C3240.91 1914.7 3226.49 1912.41 3212.15 1910.73C3204.81 1909.87 3199.54 1903.22 3200.38 1895.87C3201.19 1889.08 3206.94 1884.03 3213.64 1884.03C3214.16 1884.03 3214.71 1884.05 3215.26 1884.1C3230.34 1885.87 3245.53 1888.29 3260.37 1891.3C3267.62 1892.79 3272.31 1899.87 3270.82 1907.12C3269.53 1913.46 3263.96 1917.84 3257.71 1917.84V1917.84ZM3096.94 1910.23C3090.2 1910.23 3084.38 1905.11 3083.64 1898.24C3082.85 1890.9 3088.19 1884.29 3095.56 1883.5C3110.61 1881.88 3125.94 1880.92 3141.14 1880.58H3141.42C3148.7 1880.58 3154.66 1886.4 3154.82 1893.72C3154.97 1901.11 3149.1 1907.24 3141.69 1907.38C3127.26 1907.69 3112.71 1908.63 3098.38 1910.16C3097.9 1910.18 3097.42 1910.23 3096.94 1910.23" fill="url(#paint13_linear_4_3)"/>
<path d="M3450.53 2000.36C3447.89 2000.36 3445.23 1999.58 3442.89 1997.97C3437.22 1994.02 3431.37 1990.13 3425.52 1986.4C3419.26 1982.42 3417.43 1974.13 3421.4 1967.89C3423.96 1963.88 3428.28 1961.69 3432.72 1961.69C3435.18 1961.69 3437.67 1962.37 3439.9 1963.8C3446.08 1967.72 3452.21 1971.81 3458.18 1975.96C3464.26 1980.18 3465.77 1988.54 3461.55 1994.61C3458.94 1998.36 3454.77 2000.36 3450.53 2000.36" fill="url(#paint14_linear_4_3)"/>
<path d="M3668.22 2346.04C3661.76 2346.04 3656.05 2341.35 3655.02 2334.76C3653.91 2327.94 3652.66 2321.03 3651.26 2314.22C3649.81 2306.96 3654.49 2299.89 3661.74 2298.42C3662.64 2298.24 3663.56 2298.15 3664.43 2298.15C3670.68 2298.15 3676.26 2302.54 3677.53 2308.9C3678.98 2316.06 3680.3 2323.34 3681.47 2330.52C3682.63 2337.83 3677.66 2344.7 3670.36 2345.87C3669.64 2345.99 3668.93 2346.04 3668.22 2346.04Z" fill="#EBF1FE"/>
<path d="M3153.51 2950.86C3147.34 2950.86 3141.16 2950.75 3134.94 2950.55C3127.54 2950.3 3121.77 2944.1 3122.01 2936.7C3122.24 2929.47 3128.2 2923.75 3135.35 2923.75C3135.51 2923.75 3135.68 2923.75 3135.85 2923.77C3141.76 2923.97 3147.67 2924.06 3153.55 2924.06C3161.96 2924.06 3170.31 2923.86 3178.57 2923.45C3178.79 2923.45 3179 2923.43 3179.22 2923.43C3186.34 2923.43 3192.25 2929.01 3192.6 2936.18C3192.98 2943.57 3187.29 2949.86 3179.88 2950.22C3171.17 2950.64 3162.31 2950.86 3153.51 2950.86ZM3064.58 2943.34C3063.83 2943.34 3063.07 2943.27 3062.28 2943.15C3047.56 2940.63 3032.75 2937.46 3018.32 2933.72C3011.15 2931.87 3006.85 2924.55 3008.71 2917.39C3010.27 2911.37 3015.73 2907.34 3021.67 2907.34C3022.78 2907.34 3023.9 2907.48 3025.04 2907.78C3038.76 2911.33 3052.81 2914.34 3066.82 2916.74C3074.1 2917.98 3079.02 2924.91 3077.76 2932.19C3076.64 2938.73 3070.97 2943.34 3064.58 2943.34ZM3240.29 2937.81C3238.51 2935.99 3237.25 2933.65 3236.76 2930.97C3236.21 2928.07 3236.64 2925.22 3237.82 2922.74L3240.29 2937.81Z" fill="url(#paint15_linear_4_3)"/>
<path d="M3249.91 2941.89C3246.21 2941.89 3242.76 2940.37 3240.3 2937.81L3237.81 2922.74C3239.57 2919.01 3243.05 2916.14 3247.44 2915.32C3261.35 2912.7 3275.33 2909.45 3289.01 2905.65C3290.2 2905.33 3291.43 2905.17 3292.59 2905.17C3298.48 2905.17 3303.86 2909.05 3305.5 2914.98C3307.48 2922.12 3303.31 2929.5 3296.18 2931.48C3281.77 2935.48 3267.02 2938.9 3252.39 2941.66C3251.55 2941.81 3250.7 2941.89 3249.91 2941.89" fill="url(#paint16_linear_4_3)"/>
<path d="M2954.15 2911.63C2952.42 2911.63 2950.7 2911.3 2949.05 2910.6C2935.23 2904.92 2921.49 2898.58 2908.23 2891.74C2901.65 2888.35 2899.05 2880.28 2902.45 2873.7C2904.83 2869.08 2909.51 2866.43 2914.36 2866.43C2916.44 2866.43 2918.53 2866.91 2920.5 2867.91C2933.09 2874.4 2946.14 2880.43 2959.24 2885.83C2966.08 2888.64 2969.35 2896.48 2966.55 2903.32C2964.41 2908.5 2959.4 2911.63 2954.15 2911.63" fill="url(#paint17_linear_4_3)"/>
<path d="M3359.68 2908.28C3354.5 2908.28 3349.56 2905.26 3347.37 2900.19C3344.43 2893.4 3347.55 2885.51 3354.35 2882.58C3367.34 2876.96 3380.29 2870.71 3392.8 2864.01C3394.8 2862.92 3396.98 2862.42 3399.11 2862.42C3403.88 2862.42 3408.53 2864.98 3410.94 2869.48C3414.44 2876.01 3411.98 2884.13 3405.46 2887.62C3392.29 2894.68 3378.66 2901.27 3364.98 2907.18C3363.26 2907.92 3361.46 2908.28 3359.68 2908.28ZM3459.4 2851.4C3455.29 2851.4 3451.18 2849.49 3448.57 2845.88C3444.21 2839.9 3445.55 2831.51 3451.54 2827.16C3463.01 2818.82 3474.27 2809.9 3485.01 2800.64C3487.55 2798.46 3490.67 2797.38 3493.76 2797.38C3497.52 2797.38 3501.25 2798.96 3503.91 2802.03C3508.76 2807.64 3508.12 2816.1 3502.52 2820.94C3491.23 2830.67 3479.35 2840.07 3467.27 2848.84C3464.91 2850.58 3462.15 2851.4 3459.4 2851.4" fill="url(#paint18_linear_4_3)"/>
<path d="M3563.1 2759.58L3556.09 2725.5C3557.85 2723.24 3559.55 2720.96 3561.26 2718.68C3563.87 2715.15 3567.93 2713.28 3572.02 2713.28C3574.82 2713.28 3577.61 2714.15 3580.01 2715.94C3585.94 2720.35 3587.18 2728.75 3582.76 2734.68C3576.5 2743.12 3569.87 2751.46 3563.1 2759.58Z" fill="#EBF1FE"/>
<path d="M3544.38 2774.14C3541.24 2774.14 3538.08 2773.03 3535.53 2770.78C3529.98 2765.89 3529.46 2757.42 3534.35 2751.87C3541.86 2743.35 3549.16 2734.51 3556.08 2725.5L3563.08 2759.58C3560.22 2762.95 3557.37 2766.3 3554.44 2769.61C3551.79 2772.61 3548.11 2774.14 3544.38 2774.14Z" fill="url(#paint19_linear_4_3)"/>
<path d="M3610.49 2680.18C3608.32 2680.18 3606.09 2679.65 3604.03 2678.53C3597.57 2674.95 3595.18 2666.81 3598.76 2660.32C3605.59 2647.88 3611.97 2635.02 3617.72 2622.06C3619.95 2617.07 3624.85 2614.1 3629.99 2614.1C3631.81 2614.1 3633.67 2614.47 3635.41 2615.26C3642.17 2618.26 3645.21 2626.18 3642.22 2632.94C3636.16 2646.58 3629.43 2660.14 3622.25 2673.23C3619.79 2677.67 3615.21 2680.18 3610.49 2680.18V2680.18ZM3654.35 2573.97C3653.13 2573.97 3651.89 2573.79 3650.64 2573.43C3643.55 2571.39 3639.44 2563.96 3641.48 2556.86C3645.4 2543.24 3648.79 2529.28 3651.54 2515.37C3652.82 2508.99 3658.43 2504.58 3664.68 2504.58C3665.56 2504.58 3666.43 2504.66 3667.3 2504.83C3674.56 2506.27 3679.28 2513.34 3677.82 2520.59C3674.93 2535.25 3671.36 2549.94 3667.22 2564.26C3665.53 2570.14 3660.18 2573.97 3654.35 2573.97ZM3673.82 2460.78C3673.53 2460.78 3673.26 2460.78 3672.97 2460.75C3665.61 2460.31 3659.97 2453.95 3660.42 2446.56C3661.05 2436.14 3661.37 2425.58 3661.37 2415.15C3661.37 2411.38 3661.34 2407.61 3661.26 2403.86C3661.11 2396.46 3666.96 2390.33 3674.35 2390.17C3674.56 2390.15 3674.75 2390.15 3674.91 2390.15C3682.14 2390.15 3687.88 2396.06 3688.04 2403.27C3688.12 2407.22 3688.17 2411.18 3688.17 2415.15C3688.17 2426.11 3687.83 2437.23 3687.17 2448.21C3686.74 2455.31 3680.84 2460.78 3673.82 2460.78" fill="#EBF1FE"/>
<path d="M2853.12 2856.18C2850.46 2856.18 2847.78 2855.4 2845.42 2853.76C2839.5 2849.58 2833.54 2845.21 2827.73 2840.74C2821.83 2836.25 2820.74 2827.84 2825.22 2821.96C2827.86 2818.52 2831.85 2816.72 2835.88 2816.72C2838.73 2816.72 2841.58 2817.61 2844.01 2819.48C2849.54 2823.72 2855.2 2827.86 2860.84 2831.82C2866.89 2836.08 2868.35 2844.44 2864.1 2850.49C2861.49 2854.21 2857.35 2856.18 2853.12 2856.18" fill="url(#paint20_linear_4_3)"/>
<path d="M2871.21 2700.77C2872.91 2702.84 2875.71 2703.61 2878.22 2702.69L2949.75 2676.38C2977.96 2698.1 3009.83 2715.48 3044.48 2727.38L3061.92 2801.53C3062.53 2804.13 3064.72 2806.06 3067.39 2806.33L3158.34 2815.54C3161.01 2815.81 3163.55 2814.37 3164.66 2811.94L3196.61 2742.8C3232.95 2738.08 3267.65 2727.45 3299.63 2711.82L3364.46 2751.94C3366.72 2753.34 3369.64 2753.15 3371.7 2751.48L3442.54 2693.66C3444.62 2691.97 3445.39 2689.16 3444.46 2686.65L3418.16 2615.12C3439.87 2586.92 3457.25 2555.05 3469.15 2520.41L3543.3 2502.96C3545.89 2502.34 3547.84 2500.16 3548.1 2497.49L3557.32 2406.53C3557.58 2403.88 3556.14 2401.33 3553.7 2400.21L3484.56 2368.25C3479.86 2331.93 3469.22 2297.22 3453.58 2265.24L3493.7 2200.42C3495.11 2198.16 3494.93 2195.24 3493.24 2193.17L3435.42 2122.34C3433.73 2120.26 3430.93 2119.5 3428.41 2120.42L3356.88 2146.73C3328.68 2125.01 3296.83 2107.62 3262.15 2095.72L3244.72 2021.57C3244.12 2018.97 3241.92 2017.05 3239.27 2016.77L3148.3 2007.57C3145.62 2007.29 3143.11 2008.74 3141.98 2011.17L3110.03 2080.3C3073.68 2085.02 3038.98 2095.66 3007 2111.29L2942.2 2071.17C2939.92 2069.76 2937.01 2069.94 2934.93 2071.64L2864.1 2129.44C2862.04 2131.13 2861.27 2133.94 2862.17 2136.45L2888.5 2208C2866.77 2236.2 2849.4 2268.06 2837.49 2302.7L2763.34 2320.16C2760.74 2320.77 2758.81 2322.96 2758.53 2325.62L2749.34 2416.58C2749.05 2419.24 2750.52 2421.77 2752.93 2422.89L2822.08 2454.85C2826.8 2491.18 2837.44 2525.89 2853.05 2557.88L2812.93 2622.67C2811.52 2624.96 2811.73 2627.86 2813.39 2629.94L2871.21 2700.77" fill="#BDD0FB"/>
<path d="M3153.48 2341.07C3150.01 2341.07 3146.56 2341.32 3143.07 2341.84C3104.61 2347.5 3077.97 2383.39 3083.62 2421.82C3089.28 2460.26 3125.17 2486.94 3163.6 2481.26C3202.04 2475.59 3228.71 2439.71 3223.05 2401.27C3220.29 2382.66 3210.47 2366.22 3195.36 2354.99C3183.09 2345.87 3168.52 2341.07 3153.48 2341.07V2341.07ZM3153.26 2503.46C3108.46 2503.46 3069.15 2470.56 3062.42 2424.95C3055.03 2374.82 3089.8 2328.02 3139.93 2320.63C3164.22 2317.04 3188.44 2323.14 3208.15 2337.78C3227.85 2352.42 3240.66 2373.86 3244.25 2398.15C3251.64 2448.28 3216.87 2495.07 3166.74 2502.47C3162.22 2503.14 3157.71 2503.46 3153.26 2503.46" fill="url(#paint21_linear_4_3)"/>
<path d="M3155.14 2636.2C3147.44 2636.2 3139.71 2635.81 3131.96 2635.02C3129.5 2634.78 3127.07 2634.49 3124.63 2634.17C3112.63 2632.56 3100.77 2629.99 3089.26 2626.53C3089.11 2626.47 3088.94 2626.44 3088.79 2626.38C3088.35 2626.25 3087.91 2626.12 3087.46 2625.97C3086.6 2625.7 3085.72 2625.44 3084.86 2625.16C3082.59 2624.42 3081.17 2622.31 3081.17 2620.06C3081.17 2619.52 3081.24 2618.95 3081.41 2618.4C3082.32 2615.58 3085.35 2614.05 3088.18 2614.95C3102.67 2619.65 3117.74 2622.81 3133.02 2624.35C3208.91 2632.05 3279.71 2599.14 3323.81 2543.3C3348.34 2512.25 3364.6 2474.1 3368.88 2431.89C3369.62 2424.49 3369.99 2417.12 3369.99 2409.77C3369.99 2360.38 3353.14 2312.89 3321.48 2274.12C3285.14 2229.57 3233.61 2201.85 3176.41 2196.05C3058.26 2184.1 2952.53 2270.44 2940.55 2388.52C2939.84 2395.8 2939.47 2403.09 2939.47 2410.36C2939.47 2441.86 2946.36 2473.01 2959.79 2501.56C2960.14 2502.29 2960.28 2503.06 2960.28 2503.82C2960.28 2505.84 2959.15 2507.77 2957.21 2508.68C2954.53 2509.93 2951.33 2508.8 2950.07 2506.1C2936 2476.14 2928.75 2443.44 2928.75 2410.36C2928.75 2402.73 2929.12 2395.07 2929.9 2387.44C2942.45 2263.46 3053.56 2172.84 3177.5 2185.38C3237.54 2191.46 3291.64 2220.57 3329.79 2267.34C3363.03 2308.05 3380.71 2357.9 3380.71 2409.76C3380.71 2417.45 3380.32 2425.21 3379.53 2432.97C3373.46 2493.03 3344.35 2547.11 3297.59 2585.28C3256.88 2618.51 3206.99 2636.2 3155.14 2636.2" fill="url(#paint22_linear_4_3)"/>
<path d="M2176.75 2837.17C2173.18 2837.17 2169.88 2834.84 2168.83 2831.23C2166.84 2824.48 2165.03 2817.59 2163.46 2810.74C2162.46 2806.28 2165.22 2801.84 2169.67 2800.81C2170.31 2800.67 2170.95 2800.6 2171.55 2800.6C2175.33 2800.6 2178.72 2803.2 2179.6 2807.03C2181.1 2813.56 2182.83 2820.14 2184.71 2826.56C2185.99 2830.95 2183.47 2835.55 2179.08 2836.84C2178.32 2837.07 2177.53 2837.17 2176.75 2837.17Z" fill="url(#paint23_linear_4_3)"/>
<path d="M2164.51 2774.7C2160.3 2774.7 2156.7 2771.53 2156.27 2767.27C2156.22 2766.77 2156.17 2766.26 2156.12 2765.76L2154.42 2732.44C2154.42 2731.93 2154.42 2731.42 2154.42 2730.9C2154.42 2728.37 2154.45 2725.81 2154.5 2723.25C2154.61 2718.68 2158.63 2715.22 2162.96 2715.14C2167.53 2715.24 2171.14 2719.02 2171.06 2723.58C2171.01 2726.04 2170.97 2728.48 2170.97 2730.9C2170.97 2742.44 2171.57 2754.11 2172.74 2765.58C2173.19 2770.14 2169.89 2774.2 2165.35 2774.66C2165.06 2774.69 2164.77 2774.7 2164.51 2774.7" fill="url(#paint24_linear_4_3)"/>
<path d="M2156.13 2765.75C2155.07 2754.71 2154.49 2743.51 2154.44 2732.43L2156.13 2765.75Z" fill="url(#paint25_linear_4_3)"/>
<path d="M2166.32 2688.79C2165.94 2688.79 2165.53 2688.76 2165.14 2688.71C2160.61 2688.06 2157.47 2683.86 2158.12 2679.34C2160.21 2664.82 2163.23 2650.3 2167.07 2636.2C2168.05 2632.51 2171.42 2630.1 2175.04 2630.1C2175.77 2630.1 2176.5 2630.19 2177.21 2630.39C2181.64 2631.59 2184.24 2636.14 2183.04 2640.55C2179.36 2654 2176.5 2667.84 2174.49 2681.7C2173.92 2685.82 2170.38 2688.79 2166.32 2688.79ZM2188.93 2605.88C2187.86 2605.88 2186.8 2605.68 2185.78 2605.27C2181.54 2603.52 2179.53 2598.68 2181.27 2594.46C2186.84 2580.92 2193.32 2567.58 2200.55 2554.82C2202.07 2552.12 2204.86 2550.6 2207.76 2550.6C2209.12 2550.6 2210.53 2550.96 2211.81 2551.68C2215.81 2553.94 2217.21 2558.99 2214.95 2562.96C2208.07 2575.14 2201.91 2587.84 2196.57 2600.76C2195.25 2603.95 2192.18 2605.88 2188.93 2605.88V2605.88ZM2231.2 2531.07C2229.5 2531.07 2227.79 2530.54 2226.29 2529.44C2222.63 2526.72 2221.84 2521.54 2224.56 2517.87C2233.3 2506.08 2242.86 2494.74 2252.96 2484.15C2254.57 2482.46 2256.76 2481.6 2258.95 2481.6C2261 2481.6 2263.04 2482.35 2264.64 2483.88C2267.95 2487.03 2268.09 2492.27 2264.93 2495.58C2255.3 2505.67 2246.18 2516.5 2237.87 2527.72C2236.24 2529.91 2233.74 2531.07 2231.2 2531.07V2531.07ZM2290.48 2468.86C2288.1 2468.86 2285.71 2467.82 2284.08 2465.83C2281.18 2462.3 2281.7 2457.08 2285.24 2454.18C2296.57 2444.9 2308.58 2436.22 2320.93 2428.39C2322.31 2427.51 2323.82 2427.1 2325.36 2427.1C2328.1 2427.1 2330.78 2428.47 2332.35 2430.95C2334.8 2434.82 2333.65 2439.94 2329.79 2442.38C2317.99 2449.84 2306.53 2458.11 2295.72 2466.98C2294.18 2468.24 2292.33 2468.86 2290.48 2468.86V2468.86ZM2363.06 2422.92C2359.95 2422.92 2356.97 2421.16 2355.57 2418.18C2353.62 2414.04 2355.4 2409.11 2359.53 2407.16C2372.77 2400.91 2386.52 2395.42 2400.42 2390.86C2401.27 2390.58 2402.15 2390.44 2403 2390.44C2406.49 2390.44 2409.72 2392.66 2410.88 2396.15C2412.3 2400.48 2409.93 2405.16 2405.58 2406.59C2392.35 2410.94 2379.21 2416.16 2366.58 2422.12C2365.44 2422.67 2364.24 2422.92 2363.06 2422.92V2422.92ZM2444.64 2396.12C2440.76 2396.12 2437.29 2393.39 2436.52 2389.44C2435.64 2384.96 2438.57 2380.62 2443.06 2379.72C2457.38 2376.92 2472.09 2374.99 2486.73 2373.96C2486.89 2373.95 2487.04 2373.95 2487.2 2373.95C2491.57 2373.95 2495.26 2377.24 2495.57 2381.64C2495.89 2386.2 2492.44 2390.15 2487.89 2390.48C2473.91 2391.44 2459.9 2393.3 2446.23 2395.98C2445.7 2396.08 2445.17 2396.12 2444.64 2396.12V2396.12ZM2573.13 2395.08C2572.64 2395.08 2572.17 2395.04 2571.68 2394.95C2559.8 2392.84 2547.59 2391.34 2535.4 2390.5C2533.54 2390.36 2531.73 2390.26 2529.92 2390.16C2525.35 2389.92 2521.85 2386.03 2522.08 2381.47C2522.32 2377.11 2525.88 2373.6 2530.14 2373.6C2530.35 2373.6 2530.57 2373.62 2530.79 2373.63C2532.72 2373.74 2534.65 2373.84 2536.58 2373.99C2549.32 2374.87 2562.1 2376.44 2574.57 2378.66C2579.08 2379.46 2582.06 2383.75 2581.27 2388.24C2580.56 2392.26 2577.07 2395.08 2573.13 2395.08" fill="url(#paint26_linear_4_3)"/>
<path d="M2516.87 3087.98H2516.74C2512.24 3087.98 2508.52 3084.34 2508.48 3079.8C2508.39 3075.24 2512.07 3071.48 2516.63 3071.43C2530.39 3071.24 2544.26 3070.23 2557.85 3068.39C2558.21 3068.35 2558.55 3068.32 2558.89 3068.32C2562.99 3068.32 2566.6 3071.31 2567.15 3075.48C2567.77 3080.03 2564.58 3084.19 2560.06 3084.81C2545.81 3086.71 2531.29 3087.79 2516.87 3087.98ZM2474.44 3085.98C2474.14 3085.98 2473.87 3085.96 2473.55 3085.94C2459.23 3084.39 2444.84 3081.98 2430.82 3078.74C2426.36 3077.7 2423.58 3073.26 2424.62 3068.8C2425.51 3064.96 2428.93 3062.39 2432.69 3062.39C2433.31 3062.39 2433.92 3062.46 2434.56 3062.6C2447.94 3065.7 2461.66 3068 2475.33 3069.48C2479.88 3069.96 2483.15 3074.04 2482.68 3078.59C2482.21 3082.84 2478.62 3085.98 2474.44 3085.98V3085.98ZM2600.49 3076.66C2596.82 3076.66 2593.46 3074.2 2592.49 3070.48C2591.32 3066.07 2593.97 3061.55 2598.37 3060.39C2611.7 3056.88 2624.91 3052.54 2637.65 3047.47C2638.65 3047.07 2639.69 3046.88 2640.69 3046.88C2644 3046.88 2647.1 3048.86 2648.4 3052.11C2650.08 3056.35 2647.99 3061.16 2643.77 3062.86C2630.41 3068.16 2616.55 3072.72 2602.59 3076.39C2601.89 3076.58 2601.17 3076.66 2600.49 3076.66V3076.66ZM2392.09 3066.9C2391.13 3066.9 2390.18 3066.72 2389.24 3066.39C2375.7 3061.46 2362.32 3055.63 2349.49 3049.07C2345.41 3046.99 2343.8 3042 2345.88 3037.94C2347.35 3035.07 2350.26 3033.43 2353.27 3033.43C2354.55 3033.43 2355.82 3033.72 2357.01 3034.32C2369.26 3040.58 2382 3046.13 2394.91 3050.84C2399.22 3052.4 2401.43 3057.16 2399.86 3061.46C2398.63 3064.8 2395.47 3066.9 2392.09 3066.9V3066.9ZM2679 3045.44C2676.07 3045.44 2673.22 3043.88 2671.71 3041.14C2669.53 3037.12 2671.01 3032.1 2675.03 3029.9C2687.07 3023.32 2698.85 3015.94 2710.02 3007.94C2711.49 3006.88 2713.17 3006.39 2714.82 3006.39C2717.41 3006.39 2719.96 3007.59 2721.57 3009.84C2724.23 3013.56 2723.38 3018.74 2719.66 3021.41C2707.94 3029.78 2695.58 3037.52 2682.97 3044.43C2681.69 3045.12 2680.34 3045.44 2679 3045.44V3045.44ZM2747.74 2996.3C2745.51 2996.3 2743.26 2995.39 2741.62 2993.62C2738.54 2990.24 2738.75 2985 2742.13 2981.92C2752.28 2972.62 2761.96 2962.62 2770.88 2952.2C2772.52 2950.3 2774.85 2949.32 2777.17 2949.32C2779.08 2949.32 2781.01 2949.98 2782.56 2951.31C2786.02 2954.28 2786.43 2959.51 2783.45 2962.98C2774.09 2973.9 2763.96 2984.38 2753.32 2994.12C2751.73 2995.58 2749.73 2996.3 2747.74 2996.3V2996.3ZM2802.71 2932.1C2801.14 2932.1 2799.55 2931.64 2798.15 2930.7C2794.35 2928.18 2793.31 2923.03 2795.83 2919.23C2803.48 2907.78 2810.47 2895.75 2816.62 2883.48C2818.07 2880.6 2821 2878.92 2824.03 2878.92C2825.27 2878.92 2826.54 2879.22 2827.73 2879.82C2831.83 2881.87 2833.46 2886.83 2831.4 2890.92C2824.95 2903.78 2817.62 2916.39 2809.62 2928.4C2808.02 2930.8 2805.41 2932.1 2802.71 2932.1" fill="url(#paint27_linear_4_3)"/>
<path d="M2316.45 3028.26C2314.86 3028.26 2313.25 3027.79 2311.81 3026.83C2305.94 3022.86 2300.18 3018.7 2294.65 3014.47C2291.03 3011.69 2290.34 3006.48 2293.11 3002.86C2294.74 3000.74 2297.21 2999.62 2299.69 2999.62C2301.45 2999.62 2303.21 3000.18 2304.73 3001.33C2309.98 3005.36 2315.49 3009.34 2321.09 3013.13C2324.88 3015.68 2325.88 3020.83 2323.3 3024.62C2321.71 3026.98 2319.12 3028.26 2316.45 3028.26" fill="url(#paint28_linear_4_3)"/>
<path d="M2323.34 2921.34C2324.45 2922.73 2326.36 2923.25 2328.03 2922.63L2375.9 2905.02C2394.76 2919.55 2416.08 2931.19 2439.27 2939.15L2450.95 2988.77C2451.35 2990.51 2452.82 2991.79 2454.59 2991.98L2515.46 2998.14C2517.24 2998.33 2518.95 2997.35 2519.69 2995.74L2541.08 2949.47C2565.38 2946.31 2588.61 2939.19 2610.02 2928.74L2653.39 2955.58C2654.9 2956.53 2656.84 2956.39 2658.25 2955.27L2705.63 2916.59C2707.03 2915.46 2707.54 2913.57 2706.93 2911.9L2689.33 2864.03C2703.85 2845.15 2715.49 2823.83 2723.44 2800.65L2773.07 2788.98C2774.81 2788.57 2776.1 2787.1 2776.27 2785.31L2782.44 2724.45C2782.61 2722.67 2781.65 2720.98 2780.02 2720.22L2733.76 2698.83C2730.6 2674.53 2723.48 2651.3 2713.02 2629.9L2739.87 2586.54C2740.81 2585.02 2740.69 2583.06 2739.56 2581.69L2700.88 2534.29C2699.75 2532.9 2697.87 2532.38 2696.19 2532.99L2648.32 2550.61C2629.45 2536.07 2608.12 2524.43 2584.95 2516.47L2573.27 2466.86C2572.85 2465.11 2571.38 2463.83 2569.61 2463.65L2508.74 2457.49C2506.96 2457.3 2505.27 2458.27 2504.51 2459.89L2483.12 2506.15C2458.82 2509.31 2435.59 2516.43 2414.2 2526.89L2370.83 2500.05C2369.3 2499.1 2367.36 2499.22 2365.98 2500.35L2318.57 2539.03C2317.19 2540.17 2316.67 2542.05 2317.29 2543.73L2334.9 2591.59C2320.35 2610.47 2308.73 2631.79 2300.76 2654.98L2251.15 2666.65C2249.42 2667.06 2248.12 2668.53 2247.93 2670.31L2241.78 2731.18C2241.59 2732.95 2242.55 2734.65 2244.18 2735.41L2290.46 2756.79C2293.62 2781.1 2300.72 2804.31 2311.18 2825.73L2284.33 2869.09C2283.39 2870.61 2283.51 2872.55 2284.64 2873.94L2323.34 2921.34" fill="#BDD0FB"/>
<path d="M2512.13 2681.77C2509.91 2681.77 2507.65 2681.93 2505.39 2682.26C2480.27 2685.97 2462.86 2709.41 2466.55 2734.53C2468.34 2746.69 2474.77 2757.43 2484.63 2764.77C2494.5 2772.11 2506.65 2775.15 2518.81 2773.37C2530.98 2771.58 2541.73 2765.15 2549.06 2755.29C2556.39 2745.41 2559.46 2733.27 2557.67 2721.1C2554.29 2698.25 2534.58 2681.77 2512.13 2681.77V2681.77ZM2511.97 2790.42C2498.63 2790.42 2485.68 2786.16 2474.77 2778.06C2461.34 2768.09 2452.62 2753.47 2450.18 2736.94C2445.15 2702.79 2468.83 2670.93 2502.97 2665.89C2537.17 2660.9 2568.99 2684.54 2574.04 2718.69C2576.48 2735.23 2572.31 2751.74 2562.35 2765.15C2552.37 2778.58 2537.78 2787.31 2521.23 2789.74C2518.13 2790.19 2515.04 2790.42 2511.97 2790.42" fill="url(#paint29_linear_4_3)"/>
<path d="M2513.18 2882.82C2507.93 2882.82 2502.65 2882.55 2497.33 2882C2486.79 2880.94 2476.31 2878.8 2466.21 2875.63C2465.77 2875.48 2465.32 2875.34 2464.86 2875.2C2461.36 2874.07 2459.13 2870.83 2459.13 2867.34C2459.13 2866.48 2459.25 2865.62 2459.54 2864.78C2460.93 2860.43 2465.63 2858.05 2469.96 2859.45C2479.35 2862.5 2489.14 2864.55 2498.99 2865.53H2499.01C2499.54 2865.59 2500.08 2865.64 2500.63 2865.7C2524 2867.83 2547.04 2864.07 2568.03 2855.02C2579.44 2850.09 2590.24 2843.61 2600.18 2835.65L2600.4 2835.47C2600.66 2835.27 2600.91 2835.07 2601.15 2834.87C2629.98 2811.33 2647.95 2777.97 2651.69 2740.95C2652.18 2736.16 2652.42 2731.37 2652.42 2726.63C2652.42 2694.66 2641.51 2663.91 2621.02 2638.8C2597.47 2609.96 2564.12 2592.03 2527.1 2588.27C2490.09 2584.53 2453.79 2595.41 2424.96 2618.95C2396.11 2642.48 2378.16 2675.83 2374.42 2712.87C2373.93 2717.58 2373.71 2722.3 2373.71 2727C2373.71 2747.4 2378.16 2767.56 2386.84 2786.04C2387.39 2787.17 2387.63 2788.37 2387.63 2789.55C2387.63 2792.66 2385.87 2795.64 2382.88 2797.04C2378.73 2798.97 2373.81 2797.22 2371.87 2793.07C2362.16 2772.39 2357.16 2749.83 2357.14 2727.02C2357.14 2721.75 2357.4 2716.47 2357.95 2711.2C2362.14 2669.76 2382.23 2632.44 2414.48 2606.12C2446.75 2579.79 2487.32 2567.57 2528.75 2571.8C2570.19 2576 2607.5 2596.07 2633.84 2628.35C2656.75 2656.43 2668.95 2690.83 2668.97 2726.59C2668.97 2731.91 2668.71 2737.26 2668.16 2742.62C2660.03 2822.83 2592.12 2882.82 2513.18 2882.82" fill="url(#paint30_linear_4_3)"/>
<path d="M1848.7 3647.26C1887.12 3650.58 1953.81 3655.98 2006.37 3658.28C2037.99 3659.67 2056.17 3656.58 2066.65 3652.39C2066.63 3653.56 2066.6 3654.68 2066.55 3655.72C2066.3 3661.26 2061.8 3665.68 2056.23 3665.99C1956.89 3671.54 1877.89 3667.91 1849.76 3666.2C1843.94 3665.84 1840.48 3659.52 1843.46 3654.56C1844.95 3652.08 1846.75 3649.66 1848.7 3647.26" fill="url(#paint31_linear_4_3)"/>
<path d="M2006.36 3658.29C1953.8 3655.98 1887.12 3650.58 1848.7 3647.26C1886.47 3600.91 2006.36 3569.67 2006.36 3569.67H2040.23C2063.53 3603.24 2066.9 3635.2 2066.64 3652.39C2056.17 3656.58 2037.98 3659.67 2006.36 3658.29Z" fill="url(#paint32_linear_4_3)"/>
<path d="M2045.94 3514.39L2042.77 3577.1C2042.43 3583.88 2037.34 3589.59 2030.55 3590.56C2023.78 3591.54 2014.71 3591.66 2005.09 3588.46C1999.18 3586.5 1994.8 3581.51 1993.72 3575.43L1982.76 3514.39H2045.94" fill="url(#paint33_linear_4_3)"/>
<path d="M2438.97 3719.61C2455.62 3716.59 2463.18 3705.41 2466.34 3693.44L2466.39 3693.77C2468.84 3706.39 2463.16 3719.46 2451.81 3725.69C2438.07 3733.19 2423.05 3734.47 2411.41 3733.86C2398.89 3733.19 2387.42 3726.5 2381.11 3715.79L2381 3715.63C2393.55 3723.66 2411.18 3724.61 2438.97 3719.61" fill="url(#paint34_linear_4_3)"/>
<path d="M2360.4 3533.71H2388.34C2430.87 3532.59 2457.57 3648.54 2466.33 3693.45C2463.17 3705.41 2455.62 3716.59 2438.96 3719.61C2411.18 3724.61 2393.56 3723.66 2380.99 3715.63C2358.03 3676.55 2346.62 3619.31 2341.15 3585.9C2334.92 3547.9 2360.4 3533.71 2360.4 3533.71" fill="url(#paint35_linear_4_3)"/>
<path d="M2384.75 3475.5L2400.25 3537.18C2402.17 3544.74 2398.54 3552.57 2391.55 3556.15C2382.87 3560.6 2370.66 3565.28 2359.43 3563.93C2354.16 3563.3 2349.77 3559.58 2348.02 3554.6L2325.25 3489.71L2384.75 3475.5" fill="url(#paint36_linear_4_3)"/>
<path d="M1839.22 2663.17C1839.22 2663.17 1977.81 3529.42 1975.53 3534.18C1975.53 3534.18 2013.79 3551.58 2055.52 3536.41C2055.52 3536.41 2042.99 3073.33 2013.64 2895.77C2013.64 2895.77 2250.14 3309.68 2325.25 3515.91C2325.25 3515.91 2364.41 3511.23 2396.84 3489.9C2396.84 3489.9 2142.19 2744.9 2074.25 2645.66L1839.22 2663.17" fill="url(#paint37_linear_4_3)"/>
<path d="M2008.11 2891.25C2008.85 2891.25 2009.62 2891.05 2010.28 2890.63C2012.19 2889.43 2012.78 2886.91 2011.58 2884.99L1959.79 2802.27C1959.17 2801.32 1958.22 2800.65 1957.13 2800.43L1919 2792.76C1916.78 2792.32 1914.63 2793.76 1914.19 2795.96C1913.74 2798.17 1915.18 2800.33 1917.4 2800.79L1953.78 2808.11L2004.64 2889.33C2005.4 2890.57 2006.75 2891.25 2008.11 2891.25" fill="url(#paint38_linear_4_3)"/>
<path d="M1203.28 1814.92C1203.28 1814.92 1296.79 1835.54 1353.66 1861.79C1364.97 1867.02 1373.97 1876.13 1379.1 1887.39C1396.12 1924.64 1447 2018.08 1545.71 2062.67C1531.5 2081.55 1508.61 2120.78 1498.63 2186.75C1439.35 2142.62 1388.18 2068.93 1363.61 1948.09C1363.61 1948.09 1344.9 1958.27 1321.55 1946.92C1309.23 1940.93 1294.99 1932.44 1284.3 1925.76C1273.66 1919.11 1265.72 1908.76 1262.65 1896.67C1258.56 1880.71 1260.97 1866.67 1260.97 1851.63L1212.9 1836.74C1212.9 1836.74 1198.44 1831.28 1203.28 1814.92" fill="url(#paint39_linear_4_3)"/>
<path d="M1498.64 2186.74C1508.61 2120.78 1531.5 2081.53 1545.71 2062.67C1607.02 2090.37 1686.78 2099.23 1788.35 2064.04C1797.71 2060.79 1807.48 2058.9 1817.37 2058.32C1871.46 2055.14 2049.61 2049.35 2197.06 2098.05C2228.08 2108.32 2253.21 2131.24 2266.16 2160.97C2306.04 2252.5 2370.61 2460.92 2191.36 2566.15C2177.58 2531.96 2161.69 2504.48 2148.11 2484.29C2176.97 2435.59 2185.52 2369.09 2134.29 2282.5C2096.94 2383.36 2079.41 2530.52 2075.76 2595.65C2074.55 2617.09 2078.31 2638.49 2086.71 2658.29L2087.63 2660.45C2089.43 2664.67 2086.96 2669.55 2082.44 2670.57C1981.54 2693.23 1876.56 2687.07 1845.22 2684.49C1839.62 2684.02 1834.97 2680.02 1833.67 2674.61C1784.61 2467.84 1784.5 2326.81 1796.52 2237.64C1750.61 2247.92 1610.25 2269.8 1498.64 2186.74" fill="url(#paint40_linear_4_3)"/>
<path d="M1796.32 2243.2C1798.35 2243.2 1800.12 2241.7 1800.38 2239.66C1811.9 2152.6 1835.37 2114.59 1835.62 2114.23C1836.81 2112.32 1836.25 2109.8 1834.33 2108.59C1832.44 2107.39 1829.9 2107.95 1828.69 2109.86C1827.69 2111.43 1804.07 2149.47 1792.27 2238.57C1791.97 2240.81 1793.54 2242.88 1795.78 2243.17C1795.97 2243.2 1796.14 2243.2 1796.32 2243.2" fill="url(#paint41_linear_4_3)"/>
<path d="M2045.35 1937.86C2045.35 1937.86 2055.56 2045.79 2064.55 2077.73C2065.91 2082.56 2063.79 2087.67 2059.4 2090.19C2044.14 2098.9 2007.57 2113.12 1957.5 2088.59C1949.4 2084.63 1944.53 2076.16 1944.91 2067.24L1949.32 1962.93L2045.35 1937.86" fill="url(#paint42_linear_4_3)"/>
<path d="M1947.11 1799.79C1947.11 1799.79 1914.46 1874.79 1912.28 1914.15C1910.07 1953.51 1901.59 1979.07 1947.11 1986.99C1992.63 1994.92 2030.98 1972.25 2051.75 1933.04C2051.75 1933.04 2084.3 1872.62 2077 1847.87C2069.71 1823.13 1947.11 1799.79 1947.11 1799.79" fill="url(#paint43_linear_4_3)"/>
<path d="M2036.21 1904.82L2033.63 1903.69C2030.32 1902.23 2028.89 1898.31 2030.57 1895.1C2036.99 1882.7 2049.49 1854.28 2033.32 1847.66C2012.5 1839.11 1929.97 1822.27 1912.17 1793C1895.05 1764.86 1910.22 1728.51 1933.01 1718.18C1934.52 1717.5 1936.33 1718.06 1937.12 1719.53L1939 1723.11C1940.31 1725.59 1943.94 1725.22 1944.72 1722.54C1945.46 1719.98 1948.87 1719.48 1950.28 1721.74C1955.75 1730.5 1970.54 1744.7 2010.04 1751.99C2066.21 1762.36 2103.33 1785.08 2104.26 1823.89C2104.32 1826.36 2106.95 1827.72 2109.05 1826.43C2113.19 1823.92 2119.82 1822.73 2128.68 1830.18C2144.12 1843.14 2137.81 1876.79 2103.99 1904.47C2102.4 1905.77 2102.42 1908.28 2104.15 1909.42C2110.27 1913.41 2119.4 1922.89 2095.73 1935.57C2071.25 1948.63 2052.95 1947.58 2045.91 1946.41C2044.16 1946.12 2043.03 1944.42 2043.42 1942.69L2050.93 1908.59C2051.36 1906.65 2049.88 1904.82 2047.91 1904.82H2036.21" fill="url(#paint44_linear_4_3)"/>
<path d="M2034.78 1912.03C2034.78 1912.03 2047.24 1864.11 2068.71 1877.55C2090.2 1890.97 2057.58 1931.23 2040.31 1933.04L2034.78 1912.03Z" fill="url(#paint45_linear_4_3)"/>
<path d="M1338.68 1936.94C1339.6 1936.94 1340.49 1936.63 1341.25 1936.01C1343.02 1934.6 1343.28 1932.01 1341.86 1930.26C1338.3 1925.91 1306.94 1887.53 1294.85 1880.7C1290.45 1878.22 1287.82 1875.65 1287.27 1873.28C1287.01 1872.17 1287.18 1870.89 1287.82 1869.44L1324.68 1876.82L1345.58 1894.75C1347.28 1896.22 1349.87 1896.02 1351.36 1894.3C1352.82 1892.6 1352.62 1890.01 1350.92 1888.54L1329.2 1869.91C1328.67 1869.46 1328.03 1869.15 1327.35 1869L1286.52 1860.83C1284.88 1860.49 1283.24 1861.19 1282.32 1862.56C1279.34 1866.99 1278.34 1871.12 1279.3 1875.16C1280.44 1879.94 1284.2 1884.09 1290.81 1887.82C1299.91 1892.98 1326.15 1923.91 1335.5 1935.43C1336.31 1936.42 1337.5 1936.94 1338.68 1936.94" fill="#F8A570"/>
<path d="M2036.38 2618.02L1892.05 2619.81L1942.56 2572.26C1955.12 2560.44 1974.28 2558.54 1988.78 2567.94C1997.25 2573.44 2006.46 2580.91 2014.42 2590.81C2014.42 2590.81 2104.44 2557.9 2148.1 2484.29C2161.68 2504.47 2177.58 2531.96 2191.36 2566.15C2152.23 2589.11 2101.52 2607.18 2036.38 2618.02Z" fill="url(#paint46_linear_4_3)"/>
<path d="M2020.83 2636.64C2020.55 2636.65 2020.26 2636.65 2019.98 2636.65L1653.63 2636.26C1644.57 2636.26 1637.24 2628.98 1637.26 2620.02C1637.26 2611.06 1644.63 2603.65 1653.66 2603.82L2020.01 2604.21C2029.07 2604.23 2036.4 2611.49 2036.4 2620.45C2036.38 2629.13 2029.5 2636.23 2020.83 2636.64" fill="url(#paint47_linear_4_3)"/>
<path d="M1324.3 2307.53H1629.41C1651.91 2307.53 1672.38 2320.37 1681.98 2340.53L1823.04 2636.45H1443.88C1429.38 2636.45 1416.35 2627.67 1411.01 2614.33L1301.64 2340.5C1295.33 2324.67 1307.1 2307.53 1324.3 2307.53" fill="url(#paint48_linear_4_3)"/>
<path d="M1539.24 2459.26C1545.85 2479.58 1540.97 2499.33 1528.33 2503.34C1515.69 2507.37 1500.09 2494.15 1493.48 2473.83C1486.87 2453.51 1491.76 2433.77 1504.39 2429.74C1517.03 2425.73 1532.63 2438.94 1539.24 2459.26Z" fill="url(#paint49_linear_4_3)"/>
<defs>
<linearGradient id="paint0_linear_4_3" x1="8839.99" y1="5264.41" x2="2336.31" y2="-2812.78" gradientUnits="userSpaceOnUse">
<stop stop-color="#DAE3FE"/>
<stop offset="1" stop-color="#E9EFFD"/>
</linearGradient>
<linearGradient id="paint1_linear_4_3" x1="6985.8" y1="-6237.16" x2="5032.44" y2="-1458.4" gradientUnits="userSpaceOnUse">
<stop stop-color="#E1473D"/>
<stop offset="1" stop-color="#E9605A"/>
</linearGradient>
<linearGradient id="paint2_linear_4_3" x1="5979.98" y1="-1435.36" x2="2291.12" y2="3970.71" gradientUnits="userSpaceOnUse">
<stop stop-color="#FF928E"/>
<stop offset="1" stop-color="#FE7062"/>
</linearGradient>
<linearGradient id="paint3_linear_4_3" x1="10745.6" y1="-376.667" x2="7146.45" y2="-196.71" gradientUnits="userSpaceOnUse">
<stop stop-color="#FF928E"/>
<stop offset="1" stop-color="#FE7062"/>
</linearGradient>
<linearGradient id="paint4_linear_4_3" x1="6473.07" y1="-6465.29" x2="4517.06" y2="-1680.06" gradientUnits="userSpaceOnUse">
<stop stop-color="#E1473D"/>
<stop offset="1" stop-color="#E9605A"/>
</linearGradient>
<linearGradient id="paint5_linear_4_3" x1="2110.1" y1="3001.97" x2="1916.02" y2="-2743.06" gradientUnits="userSpaceOnUse">
<stop stop-color="#09005D"/>
<stop offset="1" stop-color="#1A0F91"/>
</linearGradient>
<linearGradient id="paint6_linear_4_3" x1="2949.16" y1="-597.435" x2="785.897" y2="4586.41" gradientUnits="userSpaceOnUse">
<stop stop-color="#4F52FF"/>
<stop offset="1" stop-color="#4042E2"/>
</linearGradient>
<linearGradient id="paint7_linear_4_3" x1="2719.99" y1="-1542.13" x2="1651.82" y2="-136.969" gradientUnits="userSpaceOnUse">
<stop stop-color="#09005D"/>
<stop offset="1" stop-color="#1A0F91"/>
</linearGradient>
<linearGradient id="paint8_linear_4_3" x1="2639.43" y1="-1122.52" x2="1632.19" y2="202.477" gradientUnits="userSpaceOnUse">
<stop stop-color="#09005D"/>
<stop offset="1" stop-color="#1A0F91"/>
</linearGradient>
<linearGradient id="paint9_linear_4_3" x1="2422.27" y1="-886.913" x2="1746.76" y2="353.447" gradientUnits="userSpaceOnUse">
<stop stop-color="#4F52FF"/>
<stop offset="1" stop-color="#4042E2"/>
</linearGradient>
<linearGradient id="paint10_linear_4_3" x1="5323.69" y1="-861.793" x2="2001.14" y2="4007.45" gradientUnits="userSpaceOnUse">
<stop stop-color="#EBA5AF"/>
<stop offset="1" stop-color="#EA8D90"/>
</linearGradient>
<linearGradient id="paint11_linear_4_3" x1="9955.73" y1="-49.0814" x2="6606.5" y2="118.38" gradientUnits="userSpaceOnUse">
<stop stop-color="#EBA5AF"/>
<stop offset="1" stop-color="#EA8D90"/>
</linearGradient>
<linearGradient id="paint12_linear_4_3" x1="5506.32" y1="-1021.4" x2="2081.84" y2="3997.23" gradientUnits="userSpaceOnUse">
<stop stop-color="#EBA5AF"/>
<stop offset="1" stop-color="#EA8D90"/>
</linearGradient>
<linearGradient id="paint13_linear_4_3" x1="9662.66" y1="72.4515" x2="6406.17" y2="235.275" gradientUnits="userSpaceOnUse">
<stop stop-color="#EBA5AF"/>
<stop offset="1" stop-color="#EA8D90"/>
</linearGradient>
<linearGradient id="paint14_linear_4_3" x1="8365.87" y1="5218.15" x2="2187.86" y2="-2454.61" gradientUnits="userSpaceOnUse">
<stop stop-color="#D1DDFD"/>
<stop offset="1" stop-color="#DCE6FC"/>
</linearGradient>
<linearGradient id="paint15_linear_4_3" x1="5842.78" y1="-1315.46" x2="2230.51" y2="3978.39" gradientUnits="userSpaceOnUse">
<stop stop-color="#EBA5AF"/>
<stop offset="1" stop-color="#EA8D90"/>
</linearGradient>
<linearGradient id="paint16_linear_4_3" x1="9754.83" y1="34.2302" x2="6469.17" y2="198.512" gradientUnits="userSpaceOnUse">
<stop stop-color="#EBA5AF"/>
<stop offset="1" stop-color="#EA8D90"/>
</linearGradient>
<linearGradient id="paint17_linear_4_3" x1="5386.8" y1="-916.948" x2="2029.03" y2="4003.92" gradientUnits="userSpaceOnUse">
<stop stop-color="#EBA5AF"/>
<stop offset="1" stop-color="#EA8D90"/>
</linearGradient>
<linearGradient id="paint18_linear_4_3" x1="10285.4" y1="-185.82" x2="6831.88" y2="-13.1437" gradientUnits="userSpaceOnUse">
<stop stop-color="#EBA5AF"/>
<stop offset="1" stop-color="#EA8D90"/>
</linearGradient>
<linearGradient id="paint19_linear_4_3" x1="10433" y1="-247.048" x2="6932.79" y2="-72.0367" gradientUnits="userSpaceOnUse">
<stop stop-color="#EBA5AF"/>
<stop offset="1" stop-color="#EA8D90"/>
</linearGradient>
<linearGradient id="paint20_linear_4_3" x1="5217.73" y1="-769.18" x2="1954.34" y2="4013.39" gradientUnits="userSpaceOnUse">
<stop stop-color="#EBA5AF"/>
<stop offset="1" stop-color="#EA8D90"/>
</linearGradient>
<linearGradient id="paint21_linear_4_3" x1="5949.7" y1="901.733" x2="6277.38" y2="901.733" gradientUnits="userSpaceOnUse">
<stop stop-color="#DAE3FE"/>
<stop offset="1" stop-color="#E9EFFD"/>
</linearGradient>
<linearGradient id="paint22_linear_4_3" x1="5934.92" y1="779.049" x2="6768.79" y2="779.049" gradientUnits="userSpaceOnUse">
<stop stop-color="#DAE3FE"/>
<stop offset="1" stop-color="#E9EFFD"/>
</linearGradient>
<linearGradient id="paint23_linear_4_3" x1="4077.93" y1="226.957" x2="1450.71" y2="4077.18" gradientUnits="userSpaceOnUse">
<stop stop-color="#EBA5AF"/>
<stop offset="1" stop-color="#EA8D90"/>
</linearGradient>
<linearGradient id="paint24_linear_4_3" x1="4057.39" y1="244.904" x2="1441.63" y2="4078.32" gradientUnits="userSpaceOnUse">
<stop stop-color="#EBA5AF"/>
<stop offset="1" stop-color="#EA8D90"/>
</linearGradient>
<linearGradient id="paint25_linear_4_3" x1="1780.19" y1="3163.2" x2="1609.49" y2="-1889.89" gradientUnits="userSpaceOnUse">
<stop stop-color="#3F3F8D"/>
<stop offset="1" stop-color="#4B49B1"/>
</linearGradient>
<linearGradient id="paint26_linear_4_3" x1="4740.73" y1="-352.301" x2="1743.57" y2="4040.08" gradientUnits="userSpaceOnUse">
<stop stop-color="#EBA5AF"/>
<stop offset="1" stop-color="#EA8D90"/>
</linearGradient>
<linearGradient id="paint27_linear_4_3" x1="5160.44" y1="-719.115" x2="1929.01" y2="4016.59" gradientUnits="userSpaceOnUse">
<stop stop-color="#EBA5AF"/>
<stop offset="1" stop-color="#EA8D90"/>
</linearGradient>
<linearGradient id="paint28_linear_4_3" x1="4311.42" y1="22.8929" x2="1553.87" y2="4064.11" gradientUnits="userSpaceOnUse">
<stop stop-color="#EBA5AF"/>
<stop offset="1" stop-color="#EA8D90"/>
</linearGradient>
<linearGradient id="paint29_linear_4_3" x1="3909.06" y1="1963.16" x2="4093.64" y2="1963.16" gradientUnits="userSpaceOnUse">
<stop stop-color="#DAE3FE"/>
<stop offset="1" stop-color="#E9EFFD"/>
</linearGradient>
<linearGradient id="paint30_linear_4_3" x1="3902.37" y1="1891.83" x2="4375.54" y2="1891.83" gradientUnits="userSpaceOnUse">
<stop stop-color="#DAE3FE"/>
<stop offset="1" stop-color="#E9EFFD"/>
</linearGradient>
<linearGradient id="paint31_linear_4_3" x1="2714.48" y1="3494.06" x2="2436.3" y2="3494.06" gradientUnits="userSpaceOnUse">
<stop stop-color="#4F52FF"/>
<stop offset="1" stop-color="#4042E2"/>
</linearGradient>
<linearGradient id="paint32_linear_4_3" x1="2714.61" y1="3439.52" x2="2444.25" y2="3439.52" gradientUnits="userSpaceOnUse">
<stop stop-color="#09005D"/>
<stop offset="1" stop-color="#1A0F91"/>
</linearGradient>
<linearGradient id="paint33_linear_4_3" x1="2663.31" y1="3370.94" x2="2585.55" y2="3370.94" gradientUnits="userSpaceOnUse">
<stop stop-color="#FEBBBA"/>
<stop offset="1" stop-color="#FF928E"/>
</linearGradient>
<linearGradient id="paint34_linear_4_3" x1="3781.32" y1="3447.57" x2="3658.88" y2="3447.57" gradientUnits="userSpaceOnUse">
<stop stop-color="#4F52FF"/>
<stop offset="1" stop-color="#4042E2"/>
</linearGradient>
<linearGradient id="paint35_linear_4_3" x1="3779.47" y1="3325.94" x2="3599.79" y2="3325.94" gradientUnits="userSpaceOnUse">
<stop stop-color="#09005D"/>
<stop offset="1" stop-color="#1A0F91"/>
</linearGradient>
<linearGradient id="paint36_linear_4_3" x1="3594.64" y1="3196.39" x2="3489.38" y2="3196.39" gradientUnits="userSpaceOnUse">
<stop stop-color="#FEBBBA"/>
<stop offset="1" stop-color="#FF928E"/>
</linearGradient>
<linearGradient id="paint37_linear_4_3" x1="3074.17" y1="1600.21" x2="3244.71" y2="2977.14" gradientUnits="userSpaceOnUse">
<stop stop-color="#09005D"/>
<stop offset="1" stop-color="#1A0F91"/>
</linearGradient>
<linearGradient id="paint38_linear_4_3" x1="2849.8" y1="2121.95" x2="2612.72" y2="2408.64" gradientUnits="userSpaceOnUse">
<stop stop-color="#09005D"/>
<stop offset="1" stop-color="#1A0F91"/>
</linearGradient>
<linearGradient id="paint39_linear_4_3" x1="1685.15" y1="1538.5" x2="2032.67" y2="1990.61" gradientUnits="userSpaceOnUse">
<stop stop-color="#FEBBBA"/>
<stop offset="1" stop-color="#FF928E"/>
</linearGradient>
<linearGradient id="paint40_linear_4_3" x1="2544.57" y1="1202.17" x2="3895.1" y2="2802.79" gradientUnits="userSpaceOnUse">
<stop stop-color="#4F52FF"/>
<stop offset="1" stop-color="#4042E2"/>
</linearGradient>
<linearGradient id="paint41_linear_4_3" x1="3107.78" y1="1165.01" x2="2238.07" y2="1813.43" gradientUnits="userSpaceOnUse">
<stop stop-color="#4F52FF"/>
<stop offset="1" stop-color="#4042E2"/>
</linearGradient>
<linearGradient id="paint42_linear_4_3" x1="2665.51" y1="1663.49" x2="2624.96" y2="1450.59" gradientUnits="userSpaceOnUse">
<stop stop-color="#FEBBBA"/>
<stop offset="1" stop-color="#FF928E"/>
</linearGradient>
<linearGradient id="paint43_linear_4_3" x1="2571.23" y1="1258.01" x2="2803.72" y2="1435.91" gradientUnits="userSpaceOnUse">
<stop stop-color="#FEBBBA"/>
<stop offset="1" stop-color="#FF928E"/>
</linearGradient>
<linearGradient id="paint44_linear_4_3" x1="2807.81" y1="1047.29" x2="2586.59" y2="1332.12" gradientUnits="userSpaceOnUse">
<stop stop-color="#09005D"/>
<stop offset="1" stop-color="#1A0F91"/>
</linearGradient>
<linearGradient id="paint45_linear_4_3" x1="2597.38" y1="1222.94" x2="2829.68" y2="1400.68" gradientUnits="userSpaceOnUse">
<stop stop-color="#FEBBBA"/>
<stop offset="1" stop-color="#FF928E"/>
</linearGradient>
<linearGradient id="paint46_linear_4_3" x1="2593.2" y1="1696.25" x2="2762.74" y2="1950.56" gradientUnits="userSpaceOnUse">
<stop stop-color="#FEBBBA"/>
<stop offset="1" stop-color="#FF928E"/>
</linearGradient>
<linearGradient id="paint47_linear_4_3" x1="2696.98" y1="2131.68" x2="2340.34" y2="2248.65" gradientUnits="userSpaceOnUse">
<stop stop-color="#09005D"/>
<stop offset="1" stop-color="#1A0F91"/>
</linearGradient>
<linearGradient id="paint48_linear_4_3" x1="1979.17" y1="2096" x2="1744.29" y2="2344.26" gradientUnits="userSpaceOnUse">
<stop stop-color="#09005D"/>
<stop offset="1" stop-color="#1A0F91"/>
</linearGradient>
<linearGradient id="paint49_linear_4_3" x1="1556.48" y1="2406.14" x2="1462.37" y2="2547.85" gradientUnits="userSpaceOnUse">
<stop stop-color="#4F52FF"/>
<stop offset="1" stop-color="#4042E2"/>
</linearGradient>
</defs>
</svg>
